<?xml version="1.0" encoding="UTF-8"?>
<svg id="Capa_1" xmlns="http://www.w3.org/2000/svg" version="1.1" viewBox="0 0 28 28">
  <!-- Generator: Adobe Illustrator 29.0.1, SVG Export Plug-In . SVG Version: 2.1.0 Build 192)  -->
  <defs>
    <style>
      .st0 {
        fill: #6f3980;
      }
    </style>
  </defs>
  <path class="st0" d="M24.66,8.36c-.15-1.64-1.32-3.07-2.95-3.43-.67-.15-1.32-.12-2-.12v-.88c0-.31-.48-.61-.79-.6-.28,0-.74.31-.74.6v.88h-8.37v-.88c0-.31-.48-.61-.79-.6-.28,0-.74.31-.74.6v.88c-.58,0-1.15-.03-1.72.06-1.78.28-3.09,1.74-3.23,3.53v12.71c.15,1.87,1.63,3.37,3.5,3.54h14.23c1.94-.12,3.46-1.66,3.59-3.59v-12.71ZM23.14,21.11c0,.81-.95,1.83-1.75,1.96-4.79.14-9.6.02-14.4.06-.91.02-2.12-1.08-2.12-1.97v-10.21h18.27v10.16ZM23.14,9.43H4.86v-1.07c0-.2.21-.69.31-.88.67-1.16,1.91-1.2,3.11-1.15v.93s.2.36.26.4c.28.23.72.23,1,0,.06-.05.26-.36.26-.4v-.93h8.37v.93s.2.36.26.4c.28.23.72.23,1,0,.06-.05.26-.36.26-.4v-.93c1.21-.05,2.44-.02,3.11,1.15.11.19.31.68.31.88v1.07Z"/>
  <path class="st0" d="M12.45,20.04c.36.26.68.24,1.02-.02l4.92-4.93c.45-.61-.06-1.38-.8-1.22-.09.02-.2.09-.27.15l-4.36,4.35-2.3-2.26c-.72-.56-1.65.31-1.03,1.12.74.96,2.02,1.85,2.81,2.81Z"/>
  <metadata>
    <sfw xmlns="http://ns.adobe.com/SaveForWeb/1.0/">
      <slices/>
      <sliceSourceBounds x="90.34" y="-21.66" width="21.32" height="21.32" bottomLeftOrigin="true"/>
    </sfw>
  </metadata>
</svg>