<?xml version="1.0" encoding="UTF-8"?>
<svg id="Capa_1" xmlns="http://www.w3.org/2000/svg" version="1.1" viewBox="0 0 24 24">
  <!-- Generator: Adobe Illustrator 29.0.1, SVG Export Plug-In . SVG Version: 2.1.0 Build 192)  -->
  <defs>
    <style>
      .st0 {
        stroke-linejoin: round;
      }

      .st0, .st1 {
        fill: none;
        stroke: #fff;
        stroke-width: .8px;
      }

      .st1 {
        stroke-linecap: round;
      }
    </style>
  </defs>
  <path class="st0" d="M8.3,11.9c-.5-.7-.6-1.4-.8-2-.2-.9.2-1.8,1-2.4.3-.2.6-.2.8.1l.4.7c.3.6.5.9.5,1.1s-.2.6-.7,1.1l-1.2,1.3h0ZM8.3,11.9c.9,1.5,2.3,2.9,3.8,3.8M12.1,15.7c.7.5,1.4.6,2,.8.9.2,1.8-.2,2.4-1,.2-.3.2-.6-.1-.8l-.7-.4c-.6-.3-.9-.5-1.1-.5s-.6.2-1.1.7l-1.3,1.2h0Z"/>
  <path class="st1" d="M13,9.6c.6.3,1.2.8,1.5,1.5M13.2,7.4c1.6.5,2.9,1.7,3.4,3.4"/>
  <metadata>
    <sfw xmlns="http://ns.adobe.com/SaveForWeb/1.0/">
      <slices/>
      <sliceSourceBounds x="7.07" y="7.07" width="9.99" height="9.99" bottomLeftOrigin="true"/>
    </sfw>
  </metadata>
</svg>