<?xml version="1.0" encoding="UTF-8"?><svg id="Capa_1" xmlns="http://www.w3.org/2000/svg" viewBox="0 0 197 56"><defs><style>.cls-1{fill:#787878;}.cls-2{fill:#003e64;}.cls-3{fill:#00917b;}.cls-4{fill:#6f3980;}</style></defs><path class="cls-3" d="M12.31,17.42c-.52-1.3-1-2.44-1.43-3.6-.5-1.33-.85-2.7-.81-4.14.02-1,.28-1.92.91-2.72.33-.42.75-.62,1.28-.57.65.06,1.06.46,1.38.98.55.91.69,1.92.68,2.96-.04,2.24-.71,4.32-1.58,6.35-.09.21-.23.41-.42.75Z"/><path class="cls-4" d="M15.84,11.06c-.17,3.1-1.51,5.82-2.76,8.57-.15.32-.41.38-.72.38-.32,0-.56-.1-.69-.43-.72-1.73-1.49-3.44-2.16-5.19-.55-1.41-.94-2.88-.94-4.41,0-1.48.35-2.85,1.3-4.02.69-.84,1.57-1.21,2.65-1.08,1.23.14,2.03.89,2.59,1.92.5.91.73,1.91.78,2.95-.01.44-.02.88-.05,1.31ZM12.77,16.66c.87-2.03,1.55-4.11,1.58-6.35.02-1.04-.13-2.05-.68-2.96-.31-.52-.73-.92-1.38-.98-.53-.05-.95.15-1.28.57-.63.8-.89,1.72-.91,2.72-.04,1.44.32,2.81.81,4.14.43,1.16.91,2.3,1.43,3.6.19-.34.33-.54.42-.75Z"/><path class="cls-4" d="M11.61,21.59c.04.57.59,1.03,1.15.98.62-.05,1-.46.97-1.05-.04-.62-.55-1.1-1.15-1.07-.59.03-1.02.52-.97,1.14Z"/><path class="cls-4" d="M11.55,9.26c.04.53.51.95,1.04.92.46-.02.83-.49.78-.97-.06-.56-.57-1.02-1.09-.97-.45.05-.77.49-.73,1.02Z"/><path class="cls-2" d="M108.91,34.96c-.4-.25-1.01-.07-1.43.18-.39.24-.64.72-.91,1.13-.66,1-1.27,2.04-1.96,3.03-.52.74-1.21,1.28-2.21.97-1.04-.32-1.65-1.07-1.76-2.12-.1-.99-.52-2.02.5-2.92,1.26-1.1,2.57-2.23,3.53-3.58,1.39-1.96,2.47-4.14,2.35-6.69-.07-1.51-1.05-2.6-2.56-2.8-1.71-.23-3.09.45-4.23,1.65-2.02,2.11-3.05,4.71-3.63,7.51-.59,2.86-.97,5.73.66,8.41.16.26.21.71.11,1-.89,2.49-1.74,5.01-2.77,7.44-.44,1.04-1.22,2.15-2.63,1.89-1.48-.26-1.57-1.66-1.64-2.77-.16-2.43-.33-4.9-.11-7.32.61-6.81,1.41-13.6,2.16-20.4.13-1.21.34-2.42.51-3.6.03-.17.19-.29.36-.26,2.56.47,4.99.97,7.44,1.34,3.36.51,6.62.51,9.79,0l-1.16-4.32c-3.02.8-6.16,1.11-9.44.91-2.1-.13-4.18-.39-6.35-.61-.17-.02-.3-.17-.28-.34.15-1.27.35-2.37.33-3.47-.04-1.63-.13-3.29-.49-4.87-.23-1.04-1.28-1.4-2.37-1.29-1.01.11-1.56.58-1.69,1.7-.27,2.16-.68,4.3-1.06,6.57-.03.18-.21.29-.39.25-1.06-.28-2.07-.53-3.07-.85-4.48-1.4-8.94-2.88-13.44-4.22-4.34-1.3-8.74-1.51-13.12-.19-3.81,1.15-7.25,3.1-10.53,5.3-1.11.75-.78,3.11.48,3.71.8.37,1.58.49,2.36-.3,1.82-1.85,4.04-3.12,6.42-4.1,4.68-1.93,9.6-2.5,14.49-1.47,5.35,1.13,10.57,2.84,15.84,4.34.24.07.52.6.49.89-.45,4.11-1.05,8.2-1.41,12.31-.18,2.12-1.59,3.08-3,4.21-.14.11-.35.08-.45-.08-.1-.16-.17-.28-.22-.41-.91-2.54-2.46-4.65-4.39-6.48-.8-.76-.97-1.55-.94-2.6.06-2.06.11-4.15-.18-6.17-.29-2.04-1.93-2.87-3.97-2.44-1.18.25-2.09.88-2.71,1.87-1.42,2.3-1.43,4.67.05,6.9,1.04,1.56,2.26,3,3.52,4.39.85.94,1.34,1.8.86,3.09-1.07,2.87-1.66,6.04-3.24,8.66-.53.88-1.07,1.53-1.85,2.07-.78.54-1.41.13-1.36-.84.07-1.3.21-2.61.47-3.88.37-1.83.9-3.63,1.32-5.46.2-.88-.09-1.62-1.02-1.84-.85-.2-1.66-.09-1.9,1.01-.05.22-.12.43-.2.65-.08.24-.41.27-.54.06-1.47-2.41-3.31-2.36-5.21.12-.18.24-.34.5-.5.75-1.62,2.55-2.22,5.37-2.3,8.36-.07,2.41-1.1,4.49-2.7,6.25-.21.23-.55.34-.91.43-.4.1-.81-.17-.85-.58-.03-.28-.04-.55.03-.8.98-3.7,2.13-7.35,3-11.07.42-1.79.75-3.51.78-5.36.02-1.11-1.14-1.97-2.21-1.78-1.19.22-2.37.64-3.45,1.18-.66.33-1.22.87-1.81,1.39-.19.17-.5.04-.5-.22,0-.05,0-.1,0-.15-.07-1.79,0-3.6-.25-5.37-.22-1.55-1.73-2.26-3.08-1.58-.66.33-1.35.76-1.8,1.32-.96,1.19-1.87,2.45-2.63,3.78-.73,1.27-1.3,2.63-1.94,4.01-.11.23-.44.24-.55,0-.28-.57-.52-1.09-.84-1.54-.56-.78-1.43-.82-2.25-.52-.75.28-.82.95-.75,1.69.17,1.8.19,3.61.41,5.4.36,2.9,0,5.61-1.75,8.02-.32.44-.63.91-.99,1.33-.94,1.11-1.9.83-2.1-.61-.1-.7-.12-1.43-.1-2.14.06-2.07.27-4.13.3-6.19.01-.95-.14-1.95-.45-2.84-.14-.4-.83-.79-1.29-.81-.26,0-.7.71-.8,1.16-.29,1.43-.36,2.92-.71,4.34-.26,1.07-.78,2.09-1.24,3.11-.1.22-.51.5-.69.45-.27-.08-.6-.41-.64-.67-.11-.77-.19-1.57-.11-2.34.32-3.13,1.49-5.82,4.22-7.61.94-.62,1.02-1.1.12-1.81-1.26-.99-3-.94-4.19.31-2.54,2.66-4.04,5.87-3.86,9.56.11,2.29.02,4.52-.63,6.68-.35,1.15-.89,2.33-1.69,3.24-.31.36-.98.49-1.39.38-.34-.09-.7-.68-.76-1.1-.12-.73-.09-1.47.02-2.24.52-3.68,1.87-7.19,2.7-10.81.46-2,.75-4.04.98-6.08.13-1.16-.41-2.14-1.54-2.64-1.21-.53-2.34-.28-3.17.72-1.05,1.27-2.02,2.61-2.96,3.96-.34.48-.62,1-.93,1.56-.15.27-.56.18-.57-.13-.08-1.68-.13-3.24-.29-4.78-.15-1.45-1.05-2.31-2.6-2.61-.2-.04-.38.13-.37.33.12,1.41.25,2.79.35,4.18.36,4.88.66,9.76-.17,14.63-.15.88-.36,1.75.73,2.01,1.12.27,1.3-.78,1.42-1.5.33-1.92.62-3.86.72-5.8.19-3.53,2.4-6.06,4.14-8.83.12-.19.4-.27.68-.36.15-.05.32.03.38.18.1.27.21.54.22.81.02.4-.11.82-.19,1.22-.63,3.28-1.4,6.55-1.83,9.86-.29,2.17-.4,4.52-.27,6.72.08,1.28.78,2.43,2.29,2.8,1.29.32,2.64-.26,3.51-1.7.65-1.08,1.14-2.28,1.54-3.48.33-1.01.5-2.08.68-3.03.04-.2.26-.3.43-.21.78.41,1.53.94,2.27.91.71-.03,1.4-.56,2.05-.98.19-.12.44,0,.46.22.05.49.11,1.07.24,1.64.31,1.32.61,2.75,2.17,3.16,1.66.44,2.77-.62,3.81-1.7.18-.19.3-.43.43-.66.37-.62.74-1.24,1.15-1.94.16-.27.57-.15.56.16,0,.26,0,.5.01.74.04.88.51,1.16,1.28.78,1.33-.67,2.4-1.57,2.44-3.23.05-2.03.29-4.08.08-6.08-.24-2.15.48-3.9,1.53-5.59.65-1.04,1.44-2.01,2.24-2.94.04-.04.08-.08.14-.11.52-.33,1.22,0,1.33.62,0,.06.02.11.02.17,0,.9-.08,1.8-.18,2.7-.31,2.84-.72,5.67-.95,8.51-.11,1.41,1.03,2.34,2.24,1.83.65-.27,1.31-1.09,1.5-1.8.48-1.76.77-3.59,1-5.41.17-1.34.62-2.51,1.64-3.35.1-.08.2-.15.31-.22.86-.49,1.9.27,1.7,1.24v.02c-.62,2.89-1.44,5.75-1.97,8.66-.33,1.8-.55,3.66-.55,5.49,0,2.52,1.97,3.87,4.29,2.89,1.07-.45,1.88-1.25,2.5-2.23.74-1.16,1.34-2.41,2.02-3.7.1-.18.34-.21.49-.07.95.92,2.14,1.14,3.27.52.96-.53,1.73-1.41,2.55-2.18.14-.13.37-.1.47.06h0c1.29,2.06,3.02,2.35,4.56.5,1.26-1.51,2.35-3.22,3.19-5,.98-2.07,1.69-4.28,2.57-6.65.09-.25.43-.27.55-.04.72,1.35,1.4,2.61,2.07,3.86.3.56.14.97-.27,1.49-.76.95-1.49,1.97-1.96,3.08-.46,1.08.06,1.97,1.07,2.54,2.33,1.31,4.75.39,5.37-2.23.33-1.4.22-2.9.34-4.35.04-.45.07-1.02.35-1.3.48-.48,1.06-.87,1.68-1.31.2-.14.48,0,.48.24,0,.03,0,.05,0,.08-.05,3.87-.2,7.74-.14,11.61.04,2.7.4,5.4,1.73,7.85.58,1.08,1.49,1.63,2.73,1.71,2.2.15,3.89-.9,4.91-2.64,1.21-2.05,2.05-4.32,2.99-6.52.31-.73.47-1.52.67-2.31.05-.18.24-.28.42-.2,4.3,1.78,9.21-.52,10.42-4.9.12-.45-.13-1.16-.54-1.41ZM100.7,33.17c.4-2.53,1.04-4.75,2.39-6.73.46-.67,1.24-.99,1.85-.52.2.15.33.42.41.74.14.52.09,1.08-.08,1.59-.72,2.13-2.07,3.83-4.09,5.22-.22.15-.52-.04-.48-.3ZM66.2,32.53c-.57,2.23-1.06,4.29-1.67,6.31-.14.46-.71.82-1.15,1.13-.73.52-1.17.09-1.25-.62-.31-2.66.02-5.24,1.3-7.63.33-.62.75-1.64,1.59-1.23.55.27.8,1.16,1.15,1.8.04.07.05.15.03.23ZM76.09,21.54c-.03.24-.33.36-.51.19-1.25-1.13-2.15-2.35-2.48-3.85-.18-.8-.19-1.64.22-2.4.25-.48.92-.89,1.35-.88.34,0,.82.51.96.9.7,1.92.74,3.9.46,6.04ZM79.01,38.83c-.04.14-.16.25-.31.36-.26.19-.63.09-.76-.2-.1-.22-.17-.43-.11-.59.24-.71.64-1.37,1-2.05.07-.13.21-.19.35-.15h0c.15.04.24.18.22.34-.11.77-.18,1.55-.38,2.3Z"/><path class="cls-4" d="M62.68,45.86l1.32-.14-1.84,5.15-1.07.12-1.68-4.77,1.22-.13.98,3.08,1.08-3.3Z"/><path class="cls-4" d="M64.59,50.6l.07-4.96,1.17-.13-.07,4.96-1.17.13Z"/><path class="cls-4" d="M69.8,50.04l-.26-.79-1.52.17-.28.85-1.3.14,1.83-5.15,1.07-.12,1.68,4.77-1.22.13ZM68.82,46.96l-.46,1.4.87-.09-.41-1.31Z"/><path class="cls-4" d="M71.32,49.43l.46-1.07c.29.22.57.34.88.31.34-.04.48-.25.48-.63l.05-3.32,1.17-.13-.04,3.53c0,1.02-.58,1.58-1.53,1.68-.6.07-1.08-.09-1.45-.37Z"/><path class="cls-4" d="M78.64,47.94l-.02,1.14-3.38.37.07-4.96,3.34-.36-.02,1.14-2.17.24v.75s1.38-.15,1.38-.15l-.02,1.09-1.38.15v.84s2.2-.24,2.2-.24Z"/><path class="cls-4" d="M79.19,48.45l.51-1.01c.37.28.84.42,1.3.37.39-.04.57-.19.55-.42-.04-.36-.55-.41-1.03-.53-.53-.14-1.15-.42-1.25-1.35-.11-1,.52-1.61,1.65-1.73.71-.08,1.27.08,1.64.36l-.54,1c-.32-.2-.64-.31-1.04-.26-.38.04-.56.19-.53.46.04.36.41.43.84.53.61.14,1.34.39,1.45,1.33.1.94-.54,1.59-1.73,1.72-.75.08-1.37-.08-1.81-.46Z"/><path class="cls-1" d="M29.47,18.94c.2.4.38.75.57,1.12-1,.56-2,.98-3.1,1.34-.1-.42-.19-.8-.29-1.23.92-.4,1.84-.81,2.82-1.23Z"/><path class="cls-1" d="M22.21,22.63c-.1-.45-.18-.83-.27-1.26.84-.19,1.66-.37,2.54-.57.17.34.35.7.56,1.11-.9.41-1.85.5-2.83.72Z"/><path class="cls-1" d="M43.76,14.88c.01.46.03.85.04,1.29-.86.04-1.7.07-2.6.11-.11-.36-.22-.75-.35-1.19.96-.25,1.91-.16,2.91-.2Z"/><path class="cls-1" d="M17.16,22.5c.05-.46.1-.85.15-1.28.86.09,1.69.17,2.59.27.05.37.11.77.18,1.23-.99.11-1.91-.12-2.91-.22Z"/><path class="cls-1" d="M32.15,19.41c.89-.42,1.69-.81,2.54-1.21-.18-.52-.35-1-.54-1.54-.99.27-1.82.77-2.73,1.24.26.53.48.98.74,1.51Z"/><path class="cls-1" d="M38.91,16.95c-.09-.55-.17-1.05-.26-1.59-.69,0-1.26.22-1.89.47.17.54.32,1.03.49,1.58.56-.16,1.08-.3,1.65-.46Z"/></svg>