<?xml version="1.0" encoding="UTF-8"?>
<svg id="Capa_1" xmlns="http://www.w3.org/2000/svg" version="1.1" viewBox="0 0 114.3 56">
  <!-- Generator: Adobe Illustrator 29.0.1, SVG Export Plug-In . SVG Version: 2.1.0 Build 192)  -->
  <defs>
    <style>
      .st0 {
        fill: #787878;
      }

      .st1 {
        fill: #fff;
      }

      .st2 {
        fill: #00917b;
      }
    </style>
  </defs>
  <path class="st1" d="M108.91,33.64c-.42-.26-1.06-.07-1.49.19-.41.25-.67.76-.95,1.18-.69,1.05-1.33,2.14-2.05,3.17-.55.78-1.27,1.34-2.31,1.01-1.09-.34-1.73-1.12-1.84-2.23-.1-1.04-.55-2.12.53-3.06,1.32-1.16,2.69-2.34,3.7-3.76,1.46-2.06,2.59-4.34,2.46-7.01-.08-1.58-1.1-2.73-2.69-2.94-1.79-.24-3.23.47-4.44,1.72-2.12,2.21-3.2,4.93-3.8,7.87-.62,3-1.02,6,.7,8.82.17.27.22.74.11,1.05-.93,2.61-1.82,5.25-2.9,7.8-.46,1.09-1.28,2.25-2.75,1.98-1.55-.28-1.65-1.74-1.72-2.9-.16-2.55-.34-5.13-.12-7.67.64-7.14,1.48-14.26,2.26-21.38.14-1.27.35-2.53.53-3.77.03-.18.2-.3.38-.27,2.68.49,5.23,1.01,7.8,1.4,3.52.53,6.94.53,10.26.01l-1.21-4.52c-3.16.84-6.46,1.17-9.9.96-2.2-.13-4.38-.41-6.65-.64-.18-.02-.31-.18-.29-.36.15-1.33.37-2.49.34-3.63-.04-1.71-.14-3.45-.51-5.11-.25-1.09-1.34-1.47-2.48-1.35-1.06.11-1.63.61-1.77,1.78-.28,2.26-.71,4.51-1.11,6.88-.03.19-.22.31-.4.26-1.11-.3-2.17-.56-3.21-.89-4.7-1.47-9.37-3.01-14.08-4.43-4.54-1.36-9.16-1.58-13.74-.2-3.99,1.2-7.59,3.25-11.04,5.56-1.16.78-.82,3.26.51,3.88.84.39,1.66.51,2.47-.31,1.9-1.93,4.24-3.27,6.73-4.29,4.9-2.02,10.06-2.62,15.18-1.54,5.6,1.19,11.08,2.98,16.6,4.55.25.07.55.63.51.93-.47,4.3-1.1,8.59-1.47,12.9-.19,2.22-1.66,3.23-3.15,4.41-.15.12-.37.08-.47-.08-.1-.16-.18-.29-.23-.43-.95-2.66-2.58-4.88-4.6-6.79-.84-.8-1.01-1.62-.98-2.72.06-2.16.12-4.35-.19-6.47-.31-2.13-2.03-3.01-4.16-2.55-1.23.26-2.19.92-2.83,1.96-1.49,2.41-1.5,4.89.06,7.23,1.09,1.63,2.37,3.15,3.69,4.6.89.98,1.41,1.88.91,3.24-1.12,3.01-1.74,6.33-3.39,9.08-.56.92-1.12,1.6-1.94,2.17-.82.57-1.48.14-1.42-.88.07-1.36.22-2.73.5-4.07.39-1.92.95-3.81,1.39-5.72.21-.92-.09-1.7-1.07-1.93-.89-.21-1.74-.09-1.99,1.06-.05.23-.12.45-.21.69-.09.25-.43.29-.57.06-1.54-2.52-3.47-2.47-5.46.13-.19.25-.36.52-.52.79-1.69,2.68-2.32,5.63-2.41,8.76-.07,2.53-1.16,4.71-2.83,6.55-.22.24-.58.36-.96.46-.42.11-.85-.18-.89-.61-.03-.29-.04-.57.03-.84,1.03-3.87,2.23-7.71,3.14-11.61.44-1.88.79-3.68.82-5.62.02-1.16-1.2-2.07-2.32-1.86-1.24.23-2.48.67-3.61,1.24-.69.35-1.28.91-1.9,1.45-.2.18-.52.04-.53-.23,0-.05,0-.1,0-.15-.07-1.88,0-3.78-.27-5.63-.23-1.63-1.82-2.36-3.23-1.66-.69.35-1.41.79-1.89,1.38-1.01,1.25-1.96,2.57-2.75,3.96-.76,1.33-1.37,2.76-2.04,4.21-.11.24-.46.25-.58,0-.29-.6-.54-1.14-.88-1.62-.59-.82-1.5-.86-2.36-.55-.79.29-.86.99-.79,1.77.17,1.88.2,3.78.43,5.66.38,3.04.01,5.88-1.83,8.41-.34.47-.67.95-1.04,1.39-.99,1.16-1.99.87-2.2-.64-.1-.74-.12-1.5-.1-2.24.07-2.16.29-4.32.32-6.49.01-1-.15-2.04-.47-2.98-.14-.41-.87-.83-1.35-.85-.27-.01-.74.75-.83,1.22-.31,1.5-.38,3.06-.74,4.55-.27,1.13-.81,2.19-1.3,3.26-.11.23-.54.53-.73.47-.28-.08-.63-.43-.67-.7-.12-.81-.2-1.65-.12-2.46.33-3.28,1.56-6.1,4.42-7.98.98-.65,1.07-1.15.13-1.89-1.32-1.04-3.15-.99-4.4.32-2.66,2.79-4.24,6.15-4.04,10.02.12,2.4.02,4.74-.66,7-.37,1.21-.93,2.44-1.77,3.4-.33.37-1.02.52-1.46.4-.36-.1-.73-.71-.8-1.15-.12-.76-.1-1.54.02-2.34.54-3.85,1.96-7.53,2.83-11.32.48-2.09.79-4.24,1.03-6.37.14-1.22-.43-2.24-1.62-2.76-1.27-.56-2.45-.29-3.32.75-1.11,1.33-2.11,2.74-3.1,4.15-.35.51-.65,1.05-.97,1.64-.15.28-.59.18-.6-.14-.08-1.76-.14-3.39-.3-5.01-.16-1.51-1.1-2.42-2.72-2.74-.21-.04-.4.13-.39.35.13,1.48.26,2.93.37,4.38.38,5.11.69,10.23-.18,15.33-.16.92-.38,1.84.76,2.11,1.17.28,1.36-.82,1.48-1.57.34-2.01.65-4.05.76-6.08.2-3.7,2.52-6.35,4.34-9.25.12-.2.42-.28.71-.37.16-.05.34.03.4.19.11.28.22.56.23.85.02.42-.12.86-.2,1.28-.66,3.44-1.46,6.86-1.92,10.33-.3,2.28-.42,4.73-.29,7.04.08,1.34.82,2.55,2.4,2.94,1.35.33,2.77-.27,3.67-1.78.68-1.13,1.2-2.39,1.61-3.65.35-1.06.52-2.18.72-3.18.04-.21.27-.32.45-.22.81.43,1.61.99,2.38.96.75-.03,1.47-.59,2.14-1.02.2-.13.46,0,.48.23.05.51.11,1.12.25,1.71.32,1.39.64,2.88,2.27,3.31,1.74.46,2.9-.65,3.99-1.78.19-.19.31-.45.45-.69.39-.65.77-1.3,1.21-2.03.17-.28.59-.16.59.16,0,.28,0,.53.01.78.04.92.54,1.22,1.34.82,1.4-.7,2.51-1.65,2.55-3.39.05-2.13.31-4.27.08-6.37-.25-2.25.5-4.09,1.61-5.86.68-1.09,1.51-2.1,2.35-3.08.04-.05.09-.09.14-.12.54-.35,1.28,0,1.4.65.01.06.02.12.02.18,0,.94-.08,1.89-.19,2.83-.33,2.97-.76,5.94-.99,8.92-.12,1.47,1.08,2.45,2.34,1.92.68-.29,1.38-1.15,1.58-1.88.51-1.85.81-3.76,1.05-5.67.18-1.4.65-2.63,1.72-3.51.1-.08.21-.16.33-.23.9-.52,1.99.29,1.78,1.3v.02c-.65,3.03-1.51,6.03-2.06,9.07-.35,1.89-.58,3.84-.58,5.76,0,2.64,2.06,4.05,4.49,3.03,1.13-.48,1.97-1.31,2.62-2.33.77-1.22,1.4-2.53,2.12-3.88.1-.19.36-.23.51-.08,1,.97,2.24,1.2,3.43.54,1.01-.56,1.82-1.48,2.68-2.28.15-.14.38-.1.49.07h0c1.35,2.16,3.16,2.46,4.78.53,1.32-1.58,2.46-3.38,3.34-5.24,1.03-2.17,1.77-4.48,2.69-6.97.09-.26.45-.28.58-.04.76,1.42,1.46,2.73,2.16,4.05.31.59.15,1.01-.28,1.56-.79.99-1.56,2.07-2.05,3.23-.48,1.13.06,2.07,1.12,2.67,2.44,1.37,4.98.4,5.63-2.34.35-1.46.23-3.04.36-4.56.04-.47.08-1.07.36-1.36.5-.51,1.11-.91,1.76-1.37.21-.15.5,0,.5.25,0,.03,0,.06,0,.08-.06,4.06-.21,8.12-.14,12.17.05,2.83.42,5.66,1.81,8.22.61,1.13,1.57,1.7,2.86,1.79,2.31.16,4.08-.94,5.15-2.76,1.26-2.15,2.15-4.52,3.13-6.83.32-.76.49-1.6.7-2.42.05-.19.25-.29.44-.21,4.51,1.86,9.65-.54,10.92-5.14.13-.47-.14-1.22-.56-1.48ZM100.31,31.77c.42-2.65,1.09-4.98,2.51-7.05.48-.7,1.3-1.03,1.94-.54.21.16.35.45.43.77.14.55.1,1.13-.09,1.67-.76,2.23-2.17,4.01-4.29,5.47-.23.16-.54-.04-.5-.32ZM64.16,31.1c-.6,2.34-1.11,4.5-1.75,6.62-.14.48-.75.86-1.21,1.19-.77.55-1.22.09-1.31-.65-.32-2.79.02-5.49,1.37-7.99.35-.65.78-1.72,1.66-1.29.58.28.84,1.22,1.21,1.89.04.07.05.16.03.24ZM74.52,19.58c-.03.26-.34.37-.53.2-1.31-1.18-2.25-2.46-2.6-4.04-.19-.84-.19-1.72.23-2.51.27-.5.97-.93,1.41-.92.35,0,.86.54,1.01.94.73,2.01.77,4.08.49,6.33ZM77.57,37.7c-.04.14-.17.26-.33.38-.28.19-.66.09-.8-.21-.1-.23-.18-.45-.12-.62.25-.75.67-1.44,1.05-2.14.07-.13.22-.2.36-.16h0c.16.04.25.19.23.35-.11.81-.19,1.63-.4,2.41Z"/>
  <g>
    <g>
      <path class="st0" d="M32.27,15.82c.18.43.34.81.51,1.21-1.09.51-2.16.89-3.34,1.18-.07-.45-.14-.85-.21-1.3.99-.35,1.98-.71,3.03-1.09Z"/>
      <path class="st0" d="M24.7,19.2c-.07-.48-.13-.88-.19-1.34.89-.14,1.76-.27,2.69-.42.15.36.32.75.51,1.2-.97.37-1.97.39-3.01.55Z"/>
      <path class="st0" d="M19.71,18.72c.09-.48.16-.88.24-1.33.89.15,1.75.3,2.68.46.03.39.06.81.1,1.3-1.04.04-1.99-.26-3.03-.43Z"/>
    </g>
    <path class="st0" d="M34.76,16.49c.96-.38,1.83-.73,2.74-1.09-.15-.56-.3-1.07-.46-1.65-1.05.21-1.96.68-2.94,1.1.23.57.43,1.06.66,1.63Z"/>
    <path class="st0" d="M41.73,14.38c-.05-.58-.1-1.11-.16-1.69-.72-.05-1.33.14-2.01.36.14.58.26,1.1.4,1.69.6-.12,1.15-.24,1.76-.36Z"/>
  </g>
  <path class="st1" d="M15.93,13.92c.07,0,.16-.01.24-.02.3,0,.59-.01.89-.01.25,0,.46.23.45.47-.01.66-.14,1.31-.36,1.93-.36,1-.93,1.87-1.7,2.6-.71.66-1.52,1.15-2.43,1.48-.47.17-.96.28-1.45.35-.45.06-.91.07-1.36.05-.76-.04-1.5-.2-2.21-.48-1-.4-1.87-.99-2.59-1.8-.76-.85-1.27-1.83-1.52-2.95-.08-.37-.14-.75-.15-1.13,0-.3.21-.52.51-.52.3,0,.6,0,.9.01.06,0,.12.01.19.02-.02-.14-.04-.26-.06-.39-.05-.39-.07-.78-.04-1.17.03-.37.1-.72.22-1.07.1-.29.36-.42.65-.32.75.25,1.45.6,2.08,1.09,0-.02.02-.03.02-.05.47-1.09,1.14-2.04,2-2.85.12-.11.25-.2.42-.19.12,0,.23.05.32.13.47.41.87.88,1.22,1.38.34.48.63,1,.86,1.54,0,.01,0,.02.01.03.17-.11.33-.23.5-.34.51-.32,1.05-.57,1.63-.76.24-.08.5.04.59.28.11.26.17.53.21.8.05.31.06.63.04.94-.02.31-.06.62-.09.94ZM10.62,19.54s.02-.03.03-.04c.62-.78,1.12-1.63,1.48-2.56.23-.6.39-1.22.44-1.87.03-.4.02-.79-.04-1.19-.06-.46-.18-.9-.35-1.33-.28-.71-.67-1.34-1.14-1.93-.13-.16-.28-.32-.41-.48-.01,0-.02,0-.02,0-.01.01-.03.03-.04.04-.57.61-1.04,1.29-1.38,2.04-.29.63-.46,1.28-.52,1.97-.03.39-.01.78.04,1.16.06.44.16.88.31,1.3.31.88.75,1.69,1.3,2.45.1.13.2.26.3.4ZM9.5,19.69s-.02-.04-.03-.05c-.57-.8-1.04-1.67-1.36-2.6-.16-.46-.28-.93-.35-1.4,0-.02-.03-.05-.05-.06-.43-.19-.87-.34-1.33-.46-.41-.11-.82-.18-1.24-.22-.12-.01-.24-.01-.36-.02.28,2.37,2.25,4.39,4.72,4.82ZM16.48,14.88c-.06,0-.11,0-.17,0-.42.03-.84.09-1.26.19-.51.12-1.01.29-1.5.5-.02.01-.05.04-.06.06-.06.38-.15.76-.26,1.13-.32,1.03-.82,1.98-1.44,2.86-.01.02-.03.04-.05.07,2.31-.39,4.41-2.28,4.73-4.81ZM13.58,14.49s.03,0,.04-.01c.38-.14.77-.27,1.16-.36.06-.01.08-.04.09-.09.1-.41.16-.82.17-1.24,0-.24,0-.47-.06-.71-.15.07-.29.13-.42.2-.4.2-.78.43-1.11.74-.05.04-.06.08-.05.15.05.26.09.53.13.79.02.17.03.35.04.53ZM6.25,12.08c-.02.13-.04.26-.04.38-.03.54.04,1.07.17,1.59,0,.04.02.05.06.06.25.07.51.14.76.22.16.05.31.11.47.16,0-.02,0-.03,0-.04,0-.45.07-.89.17-1.33,0-.02,0-.05-.02-.06-.06-.06-.12-.11-.18-.17-.38-.31-.81-.54-1.25-.75-.04-.02-.09-.04-.15-.06Z"/>
  <path class="st2" d="M10.62,19.54c-.1-.14-.21-.27-.3-.4-.55-.76-.99-1.57-1.3-2.45-.15-.42-.25-.86-.31-1.3-.05-.39-.07-.78-.04-1.16.06-.69.23-1.34.52-1.97.34-.76.81-1.44,1.38-2.04.01-.01.03-.03.04-.04,0,0,0,0,.02,0,.14.16.28.31.41.48.48.59.87,1.23,1.14,1.93.17.43.29.87.35,1.33.05.39.07.79.04,1.19-.05.64-.21,1.27-.44,1.87-.36.93-.87,1.78-1.48,2.56,0,0-.01.02-.03.04Z"/>
  <path class="st2" d="M9.5,19.69c-2.48-.42-4.44-2.45-4.72-4.82.12,0,.24,0,.36.02.42.04.83.11,1.24.22.46.12.9.27,1.33.46.02,0,.05.04.05.06.07.48.19.95.35,1.4.32.94.79,1.8,1.36,2.6.01.01.02.03.03.05Z"/>
  <path class="st2" d="M16.48,14.88c-.32,2.53-2.42,4.43-4.73,4.81.02-.03.03-.05.05-.07.62-.88,1.12-1.82,1.44-2.86.11-.37.2-.75.26-1.13,0-.02.03-.05.06-.06.48-.21.98-.38,1.5-.5.41-.1.83-.16,1.26-.19.06,0,.11,0,.17,0Z"/>
  <path class="st2" d="M13.58,14.49c-.01-.18-.02-.36-.04-.53-.04-.27-.08-.53-.13-.79-.01-.07,0-.11.05-.15.33-.31.71-.54,1.11-.74.14-.07.28-.13.42-.2.05.24.06.48.06.71,0,.42-.07.83-.17,1.24-.01.05-.03.08-.09.09-.4.09-.78.21-1.16.36-.01,0-.03,0-.04.01Z"/>
  <path class="st2" d="M6.25,12.08c.06.02.1.04.15.06.44.2.87.43,1.25.75.06.05.12.11.18.17.01.01.02.04.02.06-.1.44-.16.88-.17,1.33,0,.01,0,.03,0,.04-.16-.05-.31-.11-.47-.16-.25-.08-.5-.15-.76-.22-.04-.01-.05-.03-.06-.06-.13-.52-.2-1.05-.17-1.59,0-.12.03-.24.04-.38Z"/>
  <g>
    <path class="st2" d="M32.78,55.73l-.96.07-1.14-4.53,1.12-.08.57,2.5.86-2.61.96-.07.62,2.5.82-2.6,1.19-.09-1.58,4.74-.96.07-.62-2.56-.87,2.67Z"/>
    <path class="st2" d="M40.35,54.1l-.05,1.06-3.17.24.22-4.64,3.13-.24-.05,1.06-2.04.15-.03.7,1.3-.1-.05,1.02-1.3.1-.03.78,2.07-.16Z"/>
    <path class="st2" d="M44.05,53.82l-.05,1.06-3.06.23.22-4.64,1.1-.08-.17,3.57,1.95-.15Z"/>
    <path class="st2" d="M47.68,53.55l-.05,1.06-3.06.23.22-4.64,1.1-.08-.17,3.57,1.95-.15Z"/>
    <path class="st2" d="M51.12,50.98l.06-1.25,1.1-.08-.22,4.64-1.01.08-.95-1.47c-.2-.3-.47-.71-.71-1.13.02.5,0,1-.02,1.48l-.06,1.25-1.1.08.22-4.64,1.01-.08.95,1.47c.2.3.47.71.71,1.13-.02-.5,0-1,.02-1.48Z"/>
    <path class="st2" d="M56.16,52.91l-.05,1.06-3.17.24.22-4.64,3.13-.24-.05,1.06-2.04.15-.03.7,1.3-.1-.05,1.02-1.3.1-.03.78,2.07-.16Z"/>
    <path class="st2" d="M56.58,53.41l.51-.93c.34.28.77.42,1.2.39.36-.03.54-.16.53-.38-.03-.34-.5-.4-.95-.53-.5-.15-1.06-.43-1.13-1.3-.07-.94.53-1.49,1.6-1.57.67-.05,1.19.11,1.52.38l-.53.92c-.29-.2-.59-.31-.96-.28-.36.03-.53.16-.51.41.03.34.37.41.77.52.57.15,1.25.41,1.31,1.28.07.89-.56,1.47-1.67,1.56-.71.05-1.28-.12-1.68-.49Z"/>
    <path class="st2" d="M60.29,53.13l.51-.93c.34.28.77.42,1.2.39.36-.03.54-.16.53-.38-.03-.34-.5-.4-.95-.53-.5-.15-1.06-.43-1.13-1.3-.07-.94.53-1.49,1.6-1.57.67-.05,1.19.11,1.52.38l-.53.92c-.29-.2-.58-.31-.96-.28-.36.03-.53.16-.51.41.03.34.37.41.77.52.57.15,1.25.41,1.31,1.28.07.89-.56,1.47-1.67,1.56-.71.05-1.28-.12-1.68-.48Z"/>
    <path class="st2" d="M67.29,53.13l-1.1.08.17-3.57-1.22.09.05-1.07,3.54-.27-.05,1.07-1.22.09-.17,3.57Z"/>
    <path class="st2" d="M70.18,52.92l-1.1.08.22-4.64,1.72-.13c.96-.07,1.58.41,1.65,1.29.05.72-.3,1.23-.84,1.47l.89,1.72-1.21.09-.68-1.45-.59.04-.07,1.51ZM70.91,50.33c.43-.03.68-.23.65-.6-.02-.33-.24-.45-.6-.43l-.61.05-.05,1.03.61-.05Z"/>
    <path class="st2" d="M73.3,52.68l.22-4.64,1.1-.08-.22,4.64-1.1.08Z"/>
    <path class="st2" d="M76.4,52.45l-1.1.08.22-4.64,1.72-.13c.95-.07,1.58.51,1.64,1.41.08,1.01-.61,1.63-1.75,1.71l-.67.05-.07,1.51ZM77.13,49.87c.41-.03.68-.21.65-.6-.03-.34-.25-.47-.6-.45l-.61.05-.05,1.04.61-.05Z"/>
    <path class="st2" d="M79.12,51.72l.51-.93c.34.28.77.42,1.2.39.36-.03.54-.16.53-.38-.03-.34-.5-.4-.95-.53-.5-.15-1.06-.43-1.13-1.3-.07-.94.53-1.49,1.6-1.57.67-.05,1.19.11,1.52.38l-.53.92c-.29-.2-.59-.31-.96-.28-.36.03-.53.16-.51.41.03.34.37.41.77.52.57.15,1.25.4,1.31,1.28.07.89-.56,1.47-1.67,1.56-.71.05-1.28-.12-1.68-.49Z"/>
  </g>
  <metadata>
    <sfw xmlns="http://ns.adobe.com/SaveForWeb/1.0/">
      <slices/>
      <sliceSourceBounds x="3.74" y="0.2" width="106.83" height="55.6" bottomLeftOrigin="true"/>
    </sfw>
  </metadata>
</svg>