<?xml version="1.0" encoding="UTF-8"?>
<svg id="Capa_1" xmlns="http://www.w3.org/2000/svg" version="1.1" viewBox="0 0 114.3 56">
  <!-- Generator: Adobe Illustrator 29.0.1, SVG Export Plug-In . SVG Version: 2.1.0 Build 192)  -->
  <defs>
    <style>
      .st0 {
        fill: #003e64;
      }

      .st1 {
        fill: #00917b;
      }

      .st2 {
        fill: #787878;
      }
    </style>
  </defs>
  <g>
    <path class="st1" d="M32.8,55.7h-1l-1.1-4.5h1.1l.6,2.4.9-2.6h1l.6,2.4.8-2.6h1.2l-1.6,4.6h-1l-.6-2.5-.9,2.7h0Z"/>
    <path class="st1" d="M40.3,54.1v1.1l-3.2.2.2-4.6,3.1-.2v1.1l-2.1.2v.7h1.3v1h-1.3v.8l2-.2h0Z"/>
    <path class="st1" d="M44,53.8v1.1l-3.1.2.2-4.6h1.1l-.2,3.5,2-.2h0Z"/>
    <path class="st1" d="M47.7,53.6v1.1l-3.1.2.2-4.6h1.1l-.2,3.5,2-.2h0Z"/>
    <path class="st1" d="M51.1,51v-1.2h1.2l-.2,4.6h-1l-1-1.4c-.2-.3-.5-.7-.7-1.1v2.7h-1.2l.2-4.6h1l1,1.4c.2.3.5.7.7,1.1v-1.5Z"/>
    <path class="st1" d="M56.2,52.9v1.1l-3.2.2.2-4.6,3.1-.2v1.1l-2.1.2v.7h1.3v1h-1.3v.8l2-.2h0Z"/>
    <path class="st1" d="M56.6,53.4l.5-.9c.3.3.8.4,1.2.4s.5-.2.5-.4c0-.3-.5-.4-1-.5-.5-.2-1.1-.4-1.1-1.3s.5-1.5,1.6-1.6c.7,0,1.2,0,1.5.4l-.5.9c-.3-.2-.6-.3-1-.3s-.5.2-.5.4c0,.3.4.4.8.5.6.2,1.2.4,1.3,1.3,0,.9-.6,1.5-1.7,1.6-.7,0-1.3,0-1.7-.5,0,0,0,0,.1,0Z"/>
    <path class="st1" d="M60.3,53.1l.5-.9c.3.3.8.4,1.2.4s.5-.2.5-.4c0-.3-.5-.4-1-.5-.5-.2-1.1-.4-1.1-1.3s.5-1.5,1.6-1.6c.7,0,1.2,0,1.5.4l-.5.9c-.3-.2-.6-.3-1-.3s-.5.2-.5.4c0,.3.4.4.8.5.6.2,1.2.4,1.3,1.3,0,.9-.6,1.5-1.7,1.6-.7,0-1.3,0-1.7-.5,0,0,0,0,.1,0Z"/>
    <path class="st1" d="M67.3,53.1h-1.1l.2-3.5h-1.2v-1l3.5-.3v1.1h-1.3l-.2,3.6h0Z"/>
    <path class="st1" d="M70.2,52.9h-1.1l.2-4.6h1.7c1-.2,1.6.3,1.7,1.2,0,.7-.3,1.2-.8,1.5l.9,1.7h-1.2l-.7-1.4h-.6v1.5h0ZM70.9,50.3c.4,0,.7-.2.7-.6s-.2-.5-.6-.4h-.6v1.1h.6,0Z"/>
    <path class="st1" d="M73.3,52.7l.2-4.6h1.1l-.2,4.6h-1.1Z"/>
    <path class="st1" d="M76.4,52.5h-1.1l.2-4.6h1.7c.9-.2,1.6.4,1.6,1.3s-.6,1.6-1.8,1.7h-.7v1.6h.1ZM77.1,49.9c.4,0,.7-.2.7-.6s-.2-.5-.6-.5h-.6v1.1h.6,0Z"/>
    <path class="st1" d="M79.1,51.7l.5-.9c.3.3.8.4,1.2.4s.5-.2.5-.4c0-.3-.5-.4-.9-.5-.5-.2-1.1-.4-1.1-1.3s.5-1.5,1.6-1.6c.7,0,1.2,0,1.5.4l-.5.9c-.3-.2-.6-.3-1-.3s-.5.2-.5.4c0,.3.4.4.8.5.6.2,1.2.4,1.3,1.3,0,.9-.6,1.5-1.7,1.6-.7,0-1.3,0-1.7-.5h0Z"/>
  </g>
  <g>
    <g>
      <path class="st2" d="M32.3,15.8c.2.4.3.8.5,1.2-1.1.5-2.2.9-3.3,1.2,0-.5-.1-.9-.2-1.3,1-.4,2-.7,3-1.1h0Z"/>
      <path class="st2" d="M24.7,19.2c0-.5-.1-.9-.2-1.3.9-.1,1.8-.3,2.7-.4.1.4.3.8.5,1.2-1,.4-2,.4-3,.5h0Z"/>
      <path class="st2" d="M19.7,18.7c0-.5.2-.9.2-1.3.9.1,1.8.3,2.7.5,0,.4,0,.8.1,1.3-1,0-2-.3-3-.4h0Z"/>
    </g>
    <path class="st2" d="M34.8,16.5c1-.4,1.8-.7,2.7-1.1-.2-.6-.3-1.1-.5-1.6-1,.2-2,.7-2.9,1.1.2.6.4,1.1.7,1.6h0Z"/>
    <path class="st2" d="M41.7,14.4c0-.6,0-1.1-.2-1.7-.7,0-1.3.1-2,.4,0,.6.3,1.1.4,1.7.6-.1,1.2-.2,1.8-.4h0Z"/>
  </g>
  <path class="st0" d="M15.9,13.9c0,0,.2,0,.2,0,.3,0,.6,0,.9,0s.5.2.5.5c0,.7-.1,1.3-.4,1.9-.4,1-.9,1.9-1.7,2.6-.7.7-1.5,1.1-2.4,1.5-.5.2-1,.3-1.4.4-.4,0-.9,0-1.4,0-.8,0-1.5-.2-2.2-.5-1-.4-1.9-1-2.6-1.8-.8-.9-1.3-1.8-1.5-2.9,0-.4-.1-.8-.2-1.1,0-.3.2-.5.5-.5s.6,0,.9,0c0,0,.1,0,.2,0,0-.1,0-.3,0-.4,0-.4,0-.8,0-1.2,0-.4,0-.7.2-1.1,0-.3.4-.4.7-.3.8.2,1.5.6,2.1,1.1,0,0,0,0,0,0,.5-1.1,1.1-2,2-2.9.1-.1.2-.2.4-.2.1,0,.2,0,.3.1.5.4.9.9,1.2,1.4.3.5.6,1,.9,1.5,0,0,0,0,0,0,.2-.1.3-.2.5-.3.5-.3,1.1-.6,1.6-.8.2,0,.5,0,.6.3.1.3.2.5.2.8,0,.3,0,.6,0,.9,0,.3,0,.6,0,.9h0ZM10.6,19.6s0,0,0,0c.6-.8,1.1-1.6,1.5-2.6.2-.6.4-1.2.4-1.9,0-.4,0-.8,0-1.2,0-.5-.2-.9-.4-1.3-.3-.7-.7-1.3-1.1-1.9-.1-.2-.3-.3-.4-.5h0c-.6.6-1,1.3-1.4,2.1-.3.6-.5,1.3-.5,2,0,.4,0,.8,0,1.2,0,.4.2.9.3,1.3.3.9.8,1.7,1.3,2.5.1.1.2.3.3.4h0ZM9.5,19.7s0,0,0,0c-.6-.8-1-1.7-1.4-2.6-.2-.5-.3-.9-.3-1.4,0,0,0,0,0,0-.4-.2-.9-.3-1.3-.5-.4-.1-.8-.2-1.2-.2-.1,0-.2,0-.4,0,.3,2.4,2.2,4.4,4.7,4.8h0ZM16.5,14.9h-.2c-.4,0-.8,0-1.3.2-.5.1-1,.3-1.5.5,0,0,0,0,0,0,0,.4-.1.8-.3,1.1-.3,1-.8,2-1.4,2.9,0,0,0,0,0,0,2.3-.4,4.4-2.3,4.7-4.8h0ZM13.6,14.5s0,0,0,0c.4-.1.8-.3,1.2-.4,0,0,0,0,0,0,.1-.4.2-.8.2-1.2,0-.2,0-.5,0-.7-.1,0-.3.1-.4.2-.4.2-.8.4-1.1.7,0,0,0,0,0,.1,0,.3,0,.5.1.8,0,.2,0,.4,0,.5h0ZM6.2,12.1c0,.1,0,.3,0,.4,0,.5,0,1.1.2,1.6,0,0,0,0,0,0,.2,0,.5.1.8.2.2,0,.3.1.5.2h0c0-.5,0-.9.2-1.4,0,0,0,0,0,0,0,0-.1-.1-.2-.2-.4-.3-.8-.5-1.2-.8,0,0,0,0-.2,0h0Z"/>
  <path class="st1" d="M10.6,19.6c-.1-.1-.2-.3-.3-.4-.6-.8-1-1.6-1.3-2.5-.1-.4-.2-.9-.3-1.3,0-.4,0-.8,0-1.2,0-.7.2-1.3.5-2,.3-.8.8-1.4,1.4-2h0s0,0,0,0c.1.2.3.3.4.5.5.6.9,1.2,1.1,1.9.2.4.3.9.4,1.3,0,.4,0,.8,0,1.2,0,.6-.2,1.3-.4,1.9-.4.9-.9,1.8-1.5,2.6,0,0,0,0,0,0h0Z"/>
  <path class="st1" d="M9.5,19.7c-2.5-.4-4.4-2.5-4.7-4.8.1,0,.2,0,.4,0,.4,0,.8.1,1.2.2.5.1.9.3,1.3.5,0,0,0,0,0,0,0,.5.2.9.4,1.4.3.9.8,1.8,1.4,2.6,0,0,0,0,0,0h0Z"/>
  <path class="st1" d="M16.5,14.9c-.3,2.5-2.4,4.4-4.7,4.8,0,0,0,0,0,0,.6-.9,1.1-1.8,1.4-2.9.1-.4.2-.8.3-1.1,0,0,0,0,0,0,.5-.2,1-.4,1.5-.5.4-.1.8-.2,1.3-.2h.2,0Z"/>
  <path class="st1" d="M13.6,14.5c0-.2,0-.4,0-.5,0-.3,0-.5-.1-.8,0,0,0-.1,0-.1.3-.3.7-.5,1.1-.7.1,0,.3-.1.4-.2,0,.2,0,.5,0,.7,0,.4,0,.8-.2,1.2,0,0,0,0,0,0-.4,0-.8.2-1.2.4,0,0,0,0,0,0h0Z"/>
  <path class="st1" d="M6.2,12.1c0,0,0,0,.2,0,.4.2.9.4,1.2.8,0,0,.1.1.2.2,0,0,0,0,0,0,0,.4-.2.9-.2,1.3h0c-.2,0-.3,0-.5-.1-.2,0-.5-.1-.8-.2,0,0,0,0,0,0-.1-.5-.2-1.1-.2-1.6,0-.1,0-.2,0-.4h0Z"/>
  <path class="st0" d="M108.9,33.6c-.4-.3-1.1,0-1.5.2-.4.2-.7.8-.9,1.2-.7,1-1.3,2.1-2.1,3.2-.6.8-1.3,1.3-2.3,1-1.1-.3-1.7-1.1-1.8-2.2,0-1-.6-2.1.5-3.1,1.3-1.2,2.7-2.3,3.7-3.8,1.5-2.1,2.6-4.3,2.5-7,0-1.6-1.1-2.7-2.7-2.9-1.8-.2-3.2.5-4.4,1.7-2.1,2.2-3.2,4.9-3.8,7.9-.6,3-1,6,.7,8.8.2.3.2.7.1,1-.9,2.6-1.8,5.2-2.9,7.8-.5,1.1-1.3,2.2-2.8,2-1.6-.3-1.7-1.7-1.7-2.9-.2-2.5-.3-5.1-.1-7.7.6-7.1,1.5-14.3,2.3-21.4.1-1.3.3-2.5.5-3.8,0-.2.2-.3.4-.3,2.7.5,5.2,1,7.8,1.4,3.5.5,6.9.5,10.3,0l-1.2-4.5c-3.2.8-6.5,1.2-9.9,1-2.2-.1-4.4-.4-6.7-.6-.2,0-.3-.2-.3-.4.2-1.3.4-2.5.3-3.6,0-1.7-.1-3.5-.5-5.1-.2-1.1-1.3-1.5-2.5-1.4-1.1.1-1.6.6-1.8,1.8-.3,2.3-.7,4.5-1.1,6.9,0,.2-.2.3-.4.3-1.1-.3-2.2-.6-3.2-.9-4.7-1.5-9.4-3-14.1-4.4-4.5-1.4-9.2-1.6-13.7-.2-4,1.2-7.6,3.2-11,5.6-1.2.8-.8,3.3.5,3.9.8.4,1.7.5,2.5-.3,1.9-1.9,4.2-3.3,6.7-4.3,4.9-2,10.1-2.6,15.2-1.5,5.6,1.2,11.1,3,16.6,4.6.2,0,.6.6.5.9-.5,4.3-1.1,8.6-1.5,12.9-.2,2.2-1.7,3.2-3.2,4.4-.2.1-.4,0-.5,0s-.2-.3-.2-.4c-.9-2.7-2.6-4.9-4.6-6.8-.8-.8-1-1.6-1-2.7,0-2.2.1-4.4-.2-6.5-.3-2.1-2-3-4.2-2.6-1.2.3-2.2.9-2.8,2-1.5,2.4-1.5,4.9,0,7.2,1.1,1.6,2.4,3.1,3.7,4.6.9,1,1.4,1.9.9,3.2-1.1,3-1.7,6.3-3.4,9.1-.6.9-1.1,1.6-1.9,2.2s-1.5.1-1.4-.9c0-1.4.2-2.7.5-4.1.4-1.9.9-3.8,1.4-5.7.2-.9,0-1.7-1.1-1.9-.9-.2-1.7,0-2,1.1,0,.2-.1.5-.2.7,0,.2-.4.3-.6,0-1.5-2.5-3.5-2.5-5.5.1-.2.2-.4.5-.5.8-1.7,2.7-2.3,5.6-2.4,8.8,0,2.5-1.2,4.7-2.8,6.5-.2.2-.6.4-1,.5-.4.1-.8-.2-.9-.6,0-.3,0-.6,0-.8,1-3.9,2.2-7.7,3.1-11.6.4-1.9.8-3.7.8-5.6,0-1.2-1.2-2.1-2.3-1.9-1.2.2-2.5.7-3.6,1.2-.7.4-1.3.9-1.9,1.5-.2.2-.5,0-.5-.2h0c0-2,0-3.9-.3-5.8-.2-1.6-1.8-2.4-3.2-1.7-.7.4-1.4.8-1.9,1.4-1,1.2-2,2.6-2.8,4-.8,1.3-1.4,2.8-2,4.2-.1.2-.5.2-.6,0-.3-.6-.5-1.1-.9-1.6-.6-.8-1.5-.9-2.4-.5-.8.3-.9,1-.8,1.8.2,1.9.2,3.8.4,5.7.4,3,0,5.9-1.8,8.4-.3.5-.7,1-1,1.4-1,1.2-2,.9-2.2-.6-.1-.7-.1-1.5-.1-2.2,0-2.2.3-4.3.3-6.5,0-1-.1-2-.5-3-.1-.4-.9-.8-1.4-.9-.3,0-.7.8-.8,1.2-.3,1.5-.4,3.1-.7,4.5-.3,1.1-.8,2.2-1.3,3.3-.1.2-.5.5-.7.5-.3,0-.6-.4-.7-.7-.1-.8-.2-1.7-.1-2.5.3-3.3,1.6-6.1,4.4-8,1-.6,1.1-1.1.1-1.9-1.3-1-3.1-1-4.4.3-2.7,2.8-4.2,6.2-4,10,.1,2.4,0,4.7-.7,7-.4,1.2-.9,2.4-1.8,3.4-.3.4-1,.5-1.5.4-.4,0-.7-.7-.8-1.2-.1-.8-.1-1.5,0-2.3.5-3.8,2-7.5,2.8-11.3.5-2.1.8-4.2,1-6.4.1-1.2-.4-2.2-1.6-2.8-1.3-.6-2.4-.3-3.3.8-1.1,1.3-2.1,2.7-3.1,4.1-.4.5-.6,1-1,1.6-.2.3-.6.2-.6-.1,0-1.8-.1-3.4-.3-5-.2-1.5-1.1-2.4-2.7-2.7-.2,0-.4.1-.4.4.1,1.5.3,2.9.4,4.4.4,5.1.7,10.2-.2,15.3-.2.9-.4,1.8.8,2.1,1.2.3,1.4-.8,1.5-1.6.3-2,.7-4,.8-6.1.2-3.7,2.5-6.4,4.3-9.2.1-.2.4-.3.7-.4.2,0,.3,0,.4.2.1.3.2.6.2.9,0,.4-.1.9-.2,1.3-.7,3.4-1.5,6.9-1.9,10.3-.3,2.3-.4,4.7-.3,7,0,1.3.8,2.5,2.4,2.9,1.4.3,2.8-.3,3.7-1.8.7-1.1,1.2-2.4,1.6-3.7.4-1.1.5-2.2.7-3.2,0-.2.3-.3.5-.2.8.4,1.6,1,2.4,1,.8,0,1.5-.6,2.1-1,.2-.1.5,0,.5.2,0,.5.1,1.1.2,1.7.3,1.4.6,2.9,2.3,3.3,1.7.5,2.9-.7,4-1.8.2-.2.3-.5.5-.7.4-.7.8-1.3,1.2-2,.2-.3.6-.2.6.2s0,.5,0,.8c0,.9.5,1.2,1.3.8,1.4-.7,2.5-1.7,2.5-3.4,0-2.1.3-4.3,0-6.4-.2-2.2.5-4.1,1.6-5.9.7-1.1,1.5-2.1,2.3-3.1,0,0,0,0,.1-.1.5-.4,1.3,0,1.4.6,0,0,0,.1,0,.2,0,.9,0,1.9-.2,2.8-.3,3-.8,5.9-1,8.9-.1,1.5,1.1,2.5,2.3,1.9.7-.3,1.4-1.2,1.6-1.9.5-1.8.8-3.8,1-5.7.2-1.4.7-2.6,1.7-3.5,0,0,.2-.2.3-.2.9-.5,2,.3,1.8,1.3h0c-.7,3.1-1.5,6.1-2.1,9.1-.3,1.9-.6,3.8-.6,5.8s2.1,4,4.5,3c1.1-.5,2-1.3,2.6-2.3.8-1.2,1.4-2.5,2.1-3.9,0-.2.4-.2.5,0,1,1,2.2,1.2,3.4.5,1-.6,1.8-1.5,2.7-2.3.2-.1.4,0,.5,0h0c1.3,2.2,3.2,2.5,4.8.5,1.3-1.6,2.5-3.4,3.3-5.2,1-2.2,1.8-4.5,2.7-7,0-.3.4-.3.6,0,.8,1.4,1.5,2.7,2.2,4.1.3.6.2,1-.3,1.6-.8,1-1.6,2.1-2.1,3.2-.5,1.1,0,2.1,1.1,2.7,2.4,1.4,5,.4,5.6-2.3.3-1.5.2-3,.4-4.6,0-.5,0-1.1.4-1.4.5-.5,1.1-.9,1.8-1.4.2-.1.5,0,.5.2h0c0,4.1-.2,8.2-.1,12.2,0,2.8.4,5.7,1.8,8.2.6,1.1,1.6,1.7,2.9,1.8,2.3.2,4.1-.9,5.2-2.8,1.3-2.2,2.2-4.5,3.1-6.8.3-.8.5-1.6.7-2.4,0-.2.2-.3.4-.2,4.5,1.9,9.7-.5,10.9-5.1.1-.5-.1-1.2-.6-1.5h0ZM100.3,31.8c.4-2.6,1.1-5,2.5-7,.5-.7,1.3-1,1.9-.5.2.2.3.5.4.8.1.5,0,1.1,0,1.7-.8,2.2-2.2,4-4.3,5.5-.2.2-.5,0-.5-.3ZM64.2,31.1c-.6,2.3-1.1,4.5-1.8,6.6-.1.5-.8.9-1.2,1.2-.8.5-1.2,0-1.3-.7-.3-2.8,0-5.5,1.4-8,.3-.6.8-1.7,1.7-1.3.6.3.8,1.2,1.2,1.9,0,0,0,.2,0,.2h0ZM74.5,19.6c0,.3-.3.4-.5.2-1.3-1.2-2.2-2.5-2.6-4-.2-.8-.2-1.7.2-2.5.3-.5,1-.9,1.4-.9.3,0,.9.5,1,.9.7,2,.8,4.1.5,6.3h0ZM77.6,37.7c0,.1-.2.3-.3.4-.3.2-.7,0-.8-.2,0-.2-.2-.5-.1-.6.2-.8.7-1.4,1.1-2.1,0-.1.2-.2.4-.2h0c.2,0,.2.2.2.3-.1.8-.2,1.6-.4,2.4h0Z"/>
  <metadata>
    <sfw xmlns="http://ns.adobe.com/SaveForWeb/1.0/">
      <slices/>
      <sliceSourceBounds x="3.71" y="0.3" width="106.87" height="55.52" bottomLeftOrigin="true"/>
    </sfw>
  </metadata>
</svg>