<?xml version="1.0" encoding="UTF-8"?>
<svg id="Capa_1" xmlns="http://www.w3.org/2000/svg" version="1.1" viewBox="0 0 114.32 56">
  <!-- Generator: Adobe Illustrator 29.0.1, SVG Export Plug-In . SVG Version: 2.1.0 Build 192)  -->
  <defs>
    <style>
      .st0 {
        fill: #787878;
      }

      .st1 {
        fill: #003e64;
      }

      .st2 {
        fill: #00917b;
      }

      .st3 {
        fill: #6f3980;
      }
    </style>
  </defs>
  <path class="st2" d="M4.42,16.09c-.58-1.45-1.12-2.73-1.6-4.03-.55-1.49-.95-3.02-.91-4.63.03-1.12.31-2.15,1.02-3.05.37-.47.83-.69,1.43-.64.73.06,1.19.51,1.54,1.09.61,1.02.77,2.15.76,3.31-.04,2.5-.79,4.83-1.77,7.1-.1.24-.25.46-.47.84Z"/>
  <g>
    <path class="st3" d="M8.38,8.97c-.19,3.47-1.69,6.52-3.09,9.59-.17.36-.46.43-.81.42-.36,0-.62-.11-.77-.48-.8-1.94-1.67-3.85-2.42-5.81C.68,11.12.23,9.48.23,7.76c0-1.65.39-3.19,1.46-4.5.77-.94,1.75-1.36,2.97-1.21,1.38.16,2.27,1,2.9,2.15.56,1.02.81,2.14.87,3.3-.02.49-.02.98-.05,1.47ZM4.94,15.24c.97-2.27,1.73-4.6,1.77-7.1.02-1.16-.14-2.29-.76-3.31-.35-.58-.81-1.03-1.54-1.09-.59-.05-1.06.17-1.43.64-.71.9-.99,1.93-1.02,3.05-.04,1.61.35,3.14.91,4.63.48,1.3,1.02,2.58,1.6,4.03.22-.38.37-.6.47-.84Z"/>
    <path class="st3" d="M3.64,20.76c.05.63.66,1.15,1.29,1.1.7-.06,1.12-.52,1.08-1.17-.04-.7-.61-1.23-1.29-1.2-.66.03-1.14.59-1.08,1.27Z"/>
  </g>
  <path class="st3" d="M3.58,6.95c.04.59.58,1.06,1.16,1.03.51-.03.92-.54.87-1.09-.06-.63-.64-1.15-1.22-1.09-.51.05-.86.55-.81,1.14Z"/>
  <path class="st1" d="M112.54,35.8c-.45-.28-1.14-.08-1.6.2-.44.26-.72.81-1.02,1.27-.74,1.12-1.42,2.29-2.2,3.39-.58.83-1.36,1.43-2.47,1.09-1.16-.36-1.86-1.2-1.97-2.38-.11-1.11-.58-2.27.57-3.27,1.42-1.24,2.88-2.5,3.96-4.02,1.56-2.2,2.77-4.64,2.64-7.5-.08-1.69-1.18-2.92-2.87-3.15-1.92-.26-3.46.5-4.75,1.85-2.27,2.36-3.43,5.28-4.07,8.42-.66,3.21-1.09,6.42.75,9.44.18.29.24.8.12,1.12-1,2.8-1.95,5.62-3.1,8.35-.49,1.16-1.37,2.41-2.95,2.12-1.65-.3-1.76-1.86-1.84-3.1-.17-2.73-.37-5.49-.12-8.2.69-7.64,1.58-15.26,2.42-22.88.15-1.36.38-2.71.57-4.04.03-.19.21-.33.41-.29,2.87.53,5.6,1.09,8.35,1.5,3.77.57,7.43.57,10.98.01l-1.3-4.84c-3.38.89-6.91,1.25-10.59,1.03-2.35-.14-4.69-.44-7.12-.69-.19-.02-.33-.19-.31-.38.16-1.42.4-2.66.37-3.89-.04-1.83-.15-3.69-.55-5.47-.26-1.17-1.44-1.57-2.65-1.44-1.14.12-1.74.65-1.9,1.91-.3,2.42-.76,4.83-1.19,7.37-.03.2-.24.33-.43.28-1.18-.32-2.32-.6-3.44-.95-5.03-1.57-10.03-3.23-15.07-4.74-4.86-1.46-9.81-1.7-14.71-.22-4.27,1.29-8.13,3.47-11.81,5.95-1.25.84-.88,3.49.54,4.16.9.42,1.77.55,2.64-.34,2.04-2.07,4.53-3.5,7.2-4.6,5.25-2.16,10.77-2.81,16.25-1.65,6,1.27,11.86,3.19,17.76,4.87.27.08.59.68.55,1-.51,4.6-1.18,9.19-1.58,13.81-.21,2.38-1.78,3.45-3.37,4.72-.16.13-.4.09-.51-.09-.11-.18-.2-.31-.25-.46-1.02-2.84-2.76-5.22-4.92-7.27-.9-.85-1.08-1.73-1.05-2.91.06-2.31.13-4.65-.2-6.92-.33-2.28-2.17-3.22-4.45-2.73-1.32.28-2.34.98-3.03,2.1-1.59,2.58-1.6,5.23.06,7.73,1.16,1.75,2.54,3.37,3.95,4.93.95,1.05,1.51,2.01.97,3.47-1.2,3.22-1.86,6.78-3.63,9.72-.59.99-1.2,1.72-2.07,2.32-.88.61-1.58.15-1.52-.94.08-1.46.24-2.93.53-4.36.42-2.06,1.01-4.08,1.48-6.12.23-.99-.1-1.82-1.15-2.06-.96-.22-1.86-.1-2.13,1.13-.05.25-.13.49-.22.73-.1.27-.46.31-.61.06-1.65-2.7-3.71-2.64-5.84.14-.2.27-.38.56-.56.84-1.81,2.86-2.49,6.02-2.58,9.38-.08,2.7-1.24,5.04-3.03,7.01-.24.26-.62.38-1.02.49-.45.12-.91-.19-.96-.65-.03-.31-.04-.61.03-.9,1.1-4.15,2.39-8.25,3.36-12.42.47-2.01.85-3.93.88-6.01.02-1.24-1.28-2.21-2.48-2-1.33.24-2.66.72-3.87,1.33-.74.37-1.37.97-2.03,1.56-.22.19-.56.04-.57-.25,0-.06,0-.11,0-.17-.08-2.01,0-4.04-.29-6.02-.25-1.74-1.94-2.53-3.45-1.78-.74.37-1.51.85-2.02,1.48-1.08,1.34-2.09,2.75-2.94,4.24-.82,1.43-1.46,2.95-2.18,4.5-.12.26-.49.27-.62,0-.31-.64-.58-1.22-.94-1.73-.63-.88-1.6-.92-2.52-.59-.85.31-.92,1.06-.84,1.9.19,2.02.21,4.05.46,6.06.41,3.25.01,6.29-1.96,9-.36.5-.71,1.02-1.11,1.49-1.06,1.24-2.13.93-2.36-.69-.11-.79-.13-1.6-.11-2.4.07-2.32.31-4.63.34-6.94.01-1.07-.16-2.18-.51-3.19-.15-.44-.94-.89-1.45-.91-.29-.01-.79.8-.89,1.3-.33,1.61-.41,3.27-.79,4.86-.29,1.21-.87,2.35-1.39,3.49-.11.25-.58.56-.78.5-.3-.09-.68-.46-.72-.75-.13-.87-.22-1.76-.13-2.63.36-3.51,1.67-6.53,4.73-8.54,1.05-.69,1.15-1.23.14-2.02-1.41-1.11-3.37-1.06-4.7.35-2.85,2.99-4.53,6.58-4.33,10.73.13,2.57.02,5.07-.71,7.49-.39,1.29-1,2.61-1.9,3.64-.35.4-1.09.55-1.56.43-.38-.1-.78-.76-.86-1.23-.13-.82-.1-1.65.02-2.51.58-4.12,2.1-8.06,3.03-12.12.52-2.24.84-4.53,1.1-6.82.15-1.31-.46-2.4-1.73-2.96-1.36-.6-2.63-.31-3.55.8-1.18,1.42-2.26,2.93-3.32,4.45-.38.54-.7,1.12-1.04,1.75-.17.3-.63.2-.64-.15-.09-1.89-.14-3.63-.32-5.36-.17-1.62-1.17-2.59-2.91-2.93-.23-.04-.43.14-.41.37.13,1.58.28,3.13.39,4.69.4,5.47.74,10.95-.19,16.4-.17.99-.41,1.97.82,2.26,1.26.3,1.45-.88,1.59-1.68.36-2.16.69-4.33.81-6.51.21-3.96,2.69-6.79,4.65-9.9.13-.21.45-.3.76-.4.17-.06.36.03.42.2.11.3.23.6.25.91.02.45-.12.92-.21,1.37-.7,3.68-1.57,7.35-2.06,11.06-.32,2.44-.45,5.07-.31,7.54.08,1.43.87,2.73,2.56,3.14,1.45.35,2.96-.29,3.93-1.91.72-1.21,1.28-2.56,1.73-3.9.37-1.13.56-2.33.77-3.4.04-.22.29-.34.49-.23.87.46,1.72,1.06,2.54,1.02.8-.03,1.57-.63,2.29-1.09.21-.14.49,0,.52.24.06.55.12,1.2.27,1.83.35,1.48.69,3.09,2.43,3.55,1.86.49,3.1-.69,4.27-1.9.2-.21.33-.48.48-.74.41-.69.83-1.39,1.29-2.17.18-.3.63-.17.63.18,0,.3,0,.56.01.83.04.99.57,1.3,1.43.87,1.5-.75,2.69-1.77,2.73-3.62.05-2.27.33-4.58.08-6.82-.26-2.41.54-4.37,1.72-6.27.73-1.17,1.61-2.25,2.51-3.29.04-.05.09-.09.15-.13.58-.37,1.37.01,1.49.69.01.06.02.13.02.19,0,1.01-.09,2.02-.2,3.02-.35,3.18-.81,6.35-1.06,9.54-.12,1.58,1.15,2.62,2.51,2.06.73-.31,1.47-1.23,1.69-2.01.54-1.98.87-4.03,1.12-6.07.19-1.5.7-2.81,1.84-3.76.11-.09.23-.17.35-.24.96-.55,2.13.31,1.9,1.4v.02c-.7,3.25-1.61,6.45-2.21,9.71-.37,2.02-.62,4.11-.62,6.16,0,2.83,2.2,4.34,4.81,3.24,1.21-.51,2.11-1.4,2.8-2.5.83-1.3,1.5-2.7,2.27-4.15.11-.2.38-.24.55-.08,1.07,1.03,2.4,1.28,3.67.58,1.08-.6,1.95-1.58,2.87-2.44.16-.15.41-.11.53.07h0c1.44,2.31,3.39,2.64,5.12.57,1.41-1.69,2.63-3.61,3.58-5.6,1.1-2.33,1.9-4.8,2.88-7.46.1-.27.48-.3.62-.04.81,1.51,1.57,2.92,2.32,4.33.34.63.16,1.09-.3,1.67-.85,1.06-1.67,2.21-2.19,3.45-.51,1.21.06,2.21,1.2,2.85,2.62,1.47,5.33.43,6.02-2.5.37-1.57.24-3.25.39-4.88.04-.5.08-1.14.39-1.46.54-.54,1.19-.97,1.88-1.46.22-.16.53,0,.54.27,0,.03,0,.06,0,.09-.06,4.34-.22,8.69-.16,13.03.05,3.03.45,6.05,1.94,8.8.65,1.21,1.68,1.82,3.06,1.92,2.47.17,4.36-1.01,5.51-2.96,1.35-2.3,2.3-4.84,3.35-7.31.35-.82.52-1.71.75-2.59.05-.2.27-.31.47-.23,4.82,1.99,10.33-.58,11.69-5.5.14-.5-.15-1.3-.6-1.58ZM103.34,33.78c.45-2.84,1.17-5.33,2.68-7.55.51-.75,1.39-1.1,2.07-.58.22.17.37.48.46.83.15.59.1,1.21-.09,1.79-.81,2.39-2.32,4.3-4.59,5.85-.25.17-.58-.04-.53-.34ZM64.65,33.07c-.64,2.5-1.19,4.81-1.87,7.08-.16.51-.8.92-1.29,1.27-.82.59-1.31.1-1.4-.7-.34-2.98.02-5.88,1.46-8.55.37-.69.84-1.84,1.78-1.38.62.3.9,1.3,1.29,2.02.04.08.06.17.03.26ZM75.74,20.75c-.03.27-.36.4-.57.21-1.4-1.26-2.41-2.63-2.78-4.32-.2-.9-.21-1.84.24-2.69.28-.54,1.03-.99,1.51-.98.38,0,.92.58,1.08,1.01.78,2.15.83,4.37.52,6.77ZM79.01,40.14c-.04.15-.18.28-.35.4-.3.21-.71.1-.85-.23-.11-.25-.19-.48-.13-.67.27-.8.72-1.54,1.12-2.29.07-.14.24-.21.39-.17h0c.17.04.27.21.25.38-.12.87-.2,1.74-.43,2.58Z"/>
  <path class="st3" d="M60.81,47.92l1.47-.16-2.06,5.77-1.2.13-1.89-5.34,1.37-.15,1.1,3.44,1.21-3.69Z"/>
  <path class="st3" d="M62.94,53.24l.08-5.55,1.31-.14-.08,5.55-1.31.14Z"/>
  <path class="st3" d="M68.78,52.6l-.29-.89-1.71.19-.31.95-1.46.16,2.04-5.76,1.2-.13,1.89,5.34-1.37.15ZM67.67,49.16l-.51,1.57.97-.11-.46-1.47Z"/>
  <path class="st3" d="M70.48,51.93l.51-1.2c.32.24.64.39.98.35.38-.04.53-.29.54-.71l.05-3.72,1.31-.14-.05,3.96c-.01,1.14-.65,1.76-1.71,1.88-.67.07-1.21-.1-1.63-.41Z"/>
  <path class="st3" d="M78.68,50.25l-.02,1.27-3.78.41.08-5.55,3.74-.41-.02,1.27-2.43.26v.84s1.54-.17,1.54-.17l-.02,1.22-1.55.17v.94s2.46-.27,2.46-.27Z"/>
  <path class="st3" d="M79.29,50.83l.57-1.13c.41.32.94.47,1.45.42.43-.05.64-.21.61-.47-.04-.41-.61-.46-1.15-.59-.6-.15-1.29-.47-1.4-1.51-.12-1.12.58-1.8,1.85-1.94.8-.09,1.43.09,1.84.4l-.6,1.12c-.35-.22-.71-.34-1.16-.29-.42.05-.63.21-.59.51.04.4.46.48.94.59.68.15,1.5.43,1.62,1.48.11,1.06-.61,1.78-1.94,1.93-.84.09-1.53-.09-2.03-.51Z"/>
  <path class="st0" d="M23.63,17.79c.22.44.42.83.63,1.26-1.12.63-2.24,1.1-3.47,1.5-.11-.47-.21-.89-.32-1.37,1.03-.45,2.06-.9,3.16-1.38Z"/>
  <path class="st0" d="M15.5,21.93c-.11-.51-.2-.93-.3-1.41.94-.21,1.85-.42,2.84-.64.19.38.39.78.63,1.24-1.01.46-2.07.56-3.17.8Z"/>
  <path class="st0" d="M39.63,13.25c.02.52.03.95.04,1.44-.97.04-1.9.08-2.91.12-.12-.4-.25-.84-.39-1.34,1.08-.28,2.14-.18,3.26-.23Z"/>
  <path class="st0" d="M9.85,21.78c.06-.51.11-.95.16-1.43.96.1,1.89.19,2.89.3.06.42.12.86.2,1.38-1.11.12-2.14-.13-3.26-.24Z"/>
  <path class="st0" d="M26.63,18.32c.99-.47,1.9-.91,2.84-1.35-.2-.58-.39-1.12-.6-1.72-1.11.3-2.04.86-3.06,1.39.29.59.54,1.1.83,1.69Z"/>
  <path class="st0" d="M34.2,15.57c-.1-.61-.19-1.17-.29-1.78-.77,0-1.41.25-2.11.52.19.6.36,1.15.55,1.77.63-.17,1.21-.33,1.85-.51Z"/>
  <metadata>
    <sfw xmlns="http://ns.adobe.com/SaveForWeb/1.0/">
      <slices/>
      <sliceSourceBounds x="0" y="0.02" width="114.32" height="55.98" bottomLeftOrigin="true"/>
    </sfw>
  </metadata>
</svg>