<?xml version="1.0" encoding="UTF-8"?><svg id="Capa_1" xmlns="http://www.w3.org/2000/svg" viewBox="0 0 194.74 56"><defs><style>.cls-1{fill:#113d48;}.cls-2{fill:#1ca8cb;}</style></defs><path class="cls-2" d="M.86,30.36c1.16-2.47,3.09-4.25,5.23-5.83,2.02-1.49,4.25-2.66,6.54-3.67.52-.23,1.05-.48,1.58-.69h0s.02,0,.02,0c.29-.12.59-.22.89-.3l3.09-1.05s-.66,1.34-1.17,3.32c-.21.82-.42,1.64-.62,2.46-.06.23-.25.3-.42.4-.65.35-1.32.66-1.95,1.05-1.54.94-2.97,2.01-3.8,3.68-.49,1-.57,2.01.09,3,.92,1.36,2.32,2,3.82,2.32,2.55.56,5.15.51,7.73.19,2-.25,3.99-.61,5.97-1.03,2.66-.57,5.28-1.28,7.88-2.08,2.56-.78,5.09-1.65,7.59-2.59,3.37-1.26,6.69-2.63,9.98-4.08,2.95-1.3,5.85-2.7,8.73-4.16,2.3-1.16,4.56-2.4,6.8-3.68,2.65-1.52,5.25-3.14,7.8-4.83.33-.22.21-.37,0-.53-.34-.25-.71-.46-1.06-.71-.2-.14-.54-.24-.47-.53.07-.26.39-.37.65-.47.1-.04.22-.04.33-.06.79-.11,1.42.34,2.09.62.41.17.72.16,1.07-.09,1.68-1.18,3.07-2.7,4.58-4.06.2-.18.23-.38.04-.63-.83-1.07-1.71-2.07-2.89-2.78-1.39-.83-2.77-1.68-4.15-2.53-.14-.09-.33-.15-.3-.35.03-.18.2-.24.35-.33.43-.25.87-.26,1.32-.08.5.2,1,.38,1.49.58,2.23.91,4.46,1.82,6.69,2.74.36.15.61.09.9-.16.77-.66,1.55-1.31,2.35-1.94C90.83.48,92.22-.03,93.8,0c.4,0,.53.2.44.57-.35,1.35-.91,2.58-2,3.5-.9.76-1.82,1.5-2.76,2.21-.23.17-.3.32-.27.59.12,1.29.43,2.56.64,3.84.28,1.66.6,3.32.92,4.97.11.58-.09,1.04-.47,1.47-.26.29-.4.27-.53-.09-.37-1.06-.79-2.11-1.13-3.18-.55-1.74-1.26-3.37-2.48-4.76-.35-.39-.58-.4-.97-.12-1.57,1.13-3.14,2.25-4.72,3.35-.32.22-.42.47-.36.84.11.66.19,1.32.28,1.98.07.51-.2.89-.52,1.23-.21.22-.42.3-.57-.09-.21-.57-.44-1.13-.68-1.69-.1-.23-.18-.44-.49-.13-.53.54-1.1,1.03-1.67,1.53-2.86,2.55-5.87,4.92-9.01,7.12-2.26,1.59-4.58,3.09-6.95,4.52-2.53,1.54-5.12,2.98-7.77,4.32-3.63,1.83-7.34,3.52-11.14,4.98-2.36.91-4.73,1.77-7.15,2.52-2.51.78-5.04,1.46-7.61,2.02-3.54.77-7.1,1.33-10.72,1.45-2.47.08-4.9-.04-7.32-.57-2.04-.45-3.94-1.19-5.62-2.45-1.76-1.32-2.94-3.01-3.15-5.24-.14-1.51.17-2.96.83-4.34Z"/><path class="cls-1" d="M51.57,2.49l.13.04.15.04.36.08h0c.18.03.34.1.53.1l-.18-.05.16.04.09.02h0s0,0,0,0c0,0-.03-.01-.25-.07l-.68-.15-.16-.03-.17-.03Z"/><path class="cls-1" d="M51.06,2.37h-.02s-.02,0-.02,0h-.02s.05,0,.05,0Z"/><path class="cls-1" d="M72.6,26.55s.02.07.06.07h.06s.11-.08.13-.12c.02-.04.03-.04.05-.01.01.01.11.06.2.03t.06,0l.03.02.02-.03s.01-.03.05-.04c0,0,.06,0,.08.08q.05.15.09.13h.04s.02-.06.02-.37c-.03-.2-.06-.39-.09-.58q-.06-.03-.08-.03s-.04.07-.08.07h-.06s0,0,0,0c-.02.02-.02.03-.02.09,0,.08,0,.09-.03.11-.02.03-.02.04-.03.11,0,.04,0,.08-.02.08l-.08.02s-.03-.1-.07-.13h-.03s-.03.09-.06.12h-.05q-.06.02-.18-.03c.01.09.05.18.04.28,0,.04-.04.07-.04.11h.01Z"/><path class="cls-1" d="M74.33,29.97v.05s0,.06,0,.06v.07s0-.13,0-.13v-.07s-.01-.39-.01-.39v-.03s0,0,0,0c0-.07,0-.15-.01-.22v.25s0,.47,0,.47v.23s-.05.07-.05.07l-.03.04s-.04.02-.07.03l-.03.3v.05c-.02-.1-.05-.21-.1-.31-.02-.27-.02-.45-.02-.64-.06-.05-.12-.15-.15-.22-.07-.08-.1-.07-.14-.06q0-.26-.07-.38s-.04,0-.06,0v.1c.06.21.19.61.09,1.51-.08-.29-.18-1.28-.18-1.29-.06.05-.11.14-.13.21-.08.19-.08.28-.07.38-.03.03-.06.07-.08.1-.05.03-.1.04-.15.05q-.1.11-.14.36s-.08-.05-.11-.07c-.01-.08-.03-.19-.04-.27-.04.02-.08.04-.12.06-.02.03-.03.04-.04.04l-.08-.15c-.05.06-.11.14-.14.21.02.04.05.08.07.12q0,.27-.09.38s-.07-.05-.1-.08c-.04,0-.05,0-.07,0q0,.23-.04.39c-.08.12-.08.15-.08.19-.13.27-.73,1.34-.73,1.34-.03,0-.05.01-.08.02-.07-.02-.17-.04-.25-.05-.02.03-.05.07-.07.1-.05.06-.13.12-.21.15-.2.39-.5.72-.59,1.17-.03.23-.04.4-.05.56-.04,0-.09.02-.13.03-.07.17-.08.18-.09.79.06.05.13.13.18.19,0,.12-.01.18-.02.24-.04.01-.09.03-.12.04q-.06-.12-.03-.39c-.08,0-.09,0-.11,0h-.05q-.31.24-.35.37s.04.05.05.08c.03.07.06.17.07.25,0,.07-.01.13-.02.19-.07.01-.14.03-.21.04.02-.14.03-.29.05-.44q-.17,0-.33.16c-.06.04-.08.05-.1.05-.11.04-.21.07-.69.61.03.02.08.05.11.08.01.17,0,.23-.31.33,0-.08.01-.19.02-.27-.25,0-.27.03-.43.24-.22.07-.34.09-.46.11-.66-.21-.69.7-1.11.96-.1.02-.2.03-.3.05-.33.24-.52,1.09-.54,1.19q-.03.23.03.46c.07.27.25.8.25.8.02.04.04.09.06.12.04,0,.09.02.12.03q.3.64.31.64c-.03.17-.08.34-.12.51-.05.14-.07.21-.08.27-.01.04-.04.09-.05.13-.04.12-.06.16-.07.21-.03.12-.07.28-.07.54,0,.1-.01.13-.02.16-.05.23-.14.44-.16.68l.05.04c0,.22,0,.24-.11.55.03.03.06.07.09.1q-.02.13-.02.51h.04c0,.09-.03.2-.05.27.2-.03.39-.07.58-.1,0,.08.03.18.06.25.09-.01.16-.03.24-.04.27,1.05-.57,1.79-.74,2.72.1-.09.16-.2.24-.31,0,.09,0,.24-.57,1.32q.12.14.54-.12s.08-.02.12-.02c-.15.18-.34.31-.51.47-.11.14-.15.18-.18.22-.05.02-.06.03-.07.03-.06.07-.11.14-.17.2l-.08.12c-.11.18-.19.38-.33.55.12-.03.16-.04.2-.05.05.04.06.04.07.04.04,0,.08,0,.11,0-.05.05-.09.1-.14.15q-.29.28-.37.38c-.1.1-.12.12-.14.14-.03.03-.07.06-.1.09,0,.03.05.02.09.01.03-.03.08-.06.11-.09.11-.07.12-.07.13-.08-.07.06-.13.13-.19.19q-.31.28-.4.34c.04-.08.04-.08.04-.07h0s0,0,0,0h0c-.11.08-.13.1-.15.12-.19.19-.36.39-.54.58-.14.12-.27.23-.4.33.03,0,.06-.01.09-.02-.05.06-.12.13-.18.18-.04.03-.07.05-.09.07-.18.14-.38.26-.56.4-.03.02-.08.04-.12.05-.05.04-.1.07-.14.11-.03.03-.5.43-.89.69-.09.07-.07.06-.05.06-.04.02-.08.05-.11.07-.15.1-.23.15-.31.2-.11.06-.13.08-.16.1q-.1.06-.57.34c-.08.04-.1.06-.13.08-.24.14-.7.38-.7.39-.11.05-.16.08-.22.11q-.1.04-.46.23h.07c.1-.06.11-.06.11-.06q.23-.1.36-.17s.05-.03.08-.04c.04-.02.65-.33,1.18-.64l.06-.04q.08-.04.34-.2h.02s.09-.06.09-.06l.07-.05c.19-.12.46-.28.69-.44.05-.03.06-.04.07-.05.11-.07.22-.14.33-.22.08-.05.09-.06.11-.07.36-.26.73-.5,1.07-.78.11-.09.18-.15.25-.2-.1.07-.19.14-.29.21.17-.13.34-.26.51-.39.09-.07.16-.12.23-.18l.02-.03s-.07.06-.11.09c-.06.05-.08.07-.1.09-.07.05-.17.13-.24.18q.6-.49.73-.6c.15-.13.27-.24.39-.34.03-.03.06-.06.09-.09.12-.11.19-.17.26-.24h.04s-.61.53-.61.53h.03c.32-.25.59-.55.89-.81q.26-.23,1.71-1.8s.06-.07.09-.11c.12-.13.16-.18.19-.22.43-.6.92-1.17,1.36-1.76.03-.04.04-.05.05-.07.17-.25.7-1.09.7-1.1.16-.26.3-.53.45-.79.03-.05.05-.08.06-.11.01-.03.03-.05.05-.08.13-.2.15-.23.22-.37.01-.03.03-.05.04-.08l.03-.04s.05-.08.06-.12c.07-.12.09-.15.11-.18v-.02q.07-.11.19-.35s.03-.05.03-.07c.02-.04.05-.09.07-.12.06-.1.07-.13.08-.16l.02-.04c.04-.07.09-.17.12-.24.16-.33.3-.61.43-.9.79-.74,1.51-2.72,1.82-3.56.04-.13.06-.19.08-.26.18-.6.42-1.18.57-1.79.03-.11.03-.14.04-.17.18-.7.18-1.04.19-1.04.02-.1.03-.16.04-.22q.06-.14.17-.79c0-.1,0-.1-.01-.09q.05-.33.06-.73,0-.16.04-.48c-.18-.86.26-1.72.13-2.58v-.16s.07-.08.07-.08v.23s0,.38,0,.38l.03-.18.04-.38v.03q.01-.06.02-.56v-.15s0,.02,0,.02v-.11Z"/><path class="cls-1" d="M47.22,1.92h.07c.08.02.17.02.25.02h-.06s-.26-.02-.26-.02Z"/><path class="cls-1" d="M47.64,1.94c-.1,0-.19-.01-.28-.02h0s.31.02.31.02h-.02Z"/><path class="cls-1" d="M48.15,1.98h-.06s.1,0,.1,0h-.04Z"/><path class="cls-1" d="M52.49,2.68s.05.01.08.02h.03s-.08-.01-.11-.02Z"/><path class="cls-1" d="M50.94,2.35h.02s.05.01.05.01h-.06s.08,0,.08,0h.02s-.17-.03-.17-.03h-.07s0-.01,0-.01h0s0,0,0,0c.03,0,.05,0,.07.01l-.14-.03-.27-.05h-.02s0,0,0,0l.2.03.31.05ZM50.88,2.34h.05s-.06,0-.06,0h0Z"/><path class="cls-1" d="M51.9,2.55h.05s-.12-.02-.12-.02h.01s-.35-.08-.35-.08l-.35-.07h-.07s.83.17.83.17h0Z"/><path class="cls-1" d="M27.03,30.4c-.07,0-.2.04-.27.25-.03.09.01.19-.02.28l-.12.1s-.1.01-.13.07c-.02.06-.03.16-.03.27h.02c.07.04.11.06.15.06.11-.01.12,0,.13.03.13.25.08.54.16.79.06-.02.07-.09.1-.13h.03c.1,0,.23.18.24.32v.02s.04.06.05.09c.02.05.04.12.06.18.02,0,.05,0,.07,0,.02,0,.05,0,.08,0q.06-.02.07-.01c-.1-.86-.17-1.72-.23-2.58q-.05-.06-.05-.3s-.09.01-.14.02l-.14.11c-.07.14.17.43-.04.44Z"/><path class="cls-1" d="M49.21,2.09l.11.02h.07s.09.02.09.02h-.03s-.06-.01-.06-.01l-.18-.02h-.01s.1.01.1.01h-.09Z"/><path class="cls-1" d="M74.33,29.95c0-.07,0-.14,0-.2,0,.02,0,.04,0,.05v.15s0,.02,0,.02v-.02Z"/><path class="cls-1" d="M48.36,2.01h-.03s.18.01.18.01h.08s-.05,0-.05,0c.07,0,.14.01.21.02-.04,0-.09-.01-.13-.01l.19.02h-.11s-.13-.02-.13-.02h-.02s.02,0,.02,0l.28.03h.07s.18.03.18.03c-.04,0-.08,0-.11,0h-.01s.09,0,.14.01h0s.09.01.09.01h-.07s.06,0,.06,0h-.02s.06,0,.06,0l-.16-.02-.33-.04-.22-.02h-.13s.01-.01.01-.01c-.12,0-.23-.02-.35-.03h.01s.03,0,.03,0h-.04s-.21-.02-.21-.02c-.05,0-.11,0-.16-.01h-.02s-.31-.02-.31-.02h-.13s-.31-.02-.31-.02h-.04s.04,0,.04,0c-.16,0-.32-.01-.48-.01h0c-.08,0-.15,0-.23,0h0c-.07,0-.14,0-.2,0,.18,0,.36,0,.54,0,.37.01.81.04.81.04-.05,0-.1,0-.14,0,.05,0,.11,0,.16,0,.07,0,.13,0,.19.01l.24.02c.08,0,.16.01.24.02.02,0,.05,0,.07,0h.06s.2.02.2.02ZM47.21,1.92h.11s.17.02.17.02h-.01c-.09,0-.18-.01-.27-.02ZM47.58,1.94h.07s.11.01.11.01h-.18Z"/><path class="cls-1" d="M74.3,29.22c0,.08,0,.16.01.24,0-.08,0-.16-.01-.24Z"/><path class="cls-1" d="M74.29,29c0,.08.01.15.01.22,0-.14-.02-.29-.03-.44,0-.03,0-.05,0-.08l-.02-.2s0-.09,0-.14c0,.02,0,.04,0,.06v-.16c.01.36.03.71.05,1.04v-.12c0-.06-.01-.12-.01-.18Z"/><path class="cls-1" d="M73.69,24.47s-.14-.69-.14-.69v.02s-.02.02-.02.02v.05s-.01-.06-.03-.09h0s0,0,0,0h-.02s0,.03.01.11q.02.08.02.2.04.59.04.62h-.02s-.05.02-.05.02h-.03c-.03.07,0,.53,0,.65.08-.02.15-.05.2-.07.03-.03,0-.29,0-.32-.01-.1-.01-.11,0-.12h.01s0-.15,0-.2c-.03-.17-.06-.37-.04-.42.04.07.04.15.07.23Z"/><path class="cls-1" d="M73.84,26.31h0s0-.02-.02-.26c-.02,0-.04.02-.06.03h0s0,.08,0,.12l-.02.05s.01.15.03.22q.04.16.05.17l.02-.02c0-.06-.02-.12-.02-.18,0-.03,0-.13.01-.13h.01Z"/><path class="cls-1" d="M74.32,29.56s0-.07,0-.1c0,.02,0,.04,0,.06,0,.01,0,.03,0,.04Z"/><path class="cls-1" d="M48.81,2.04l.15.02h0s-.06,0-.09,0h-.07Z"/><path class="cls-1" d="M52.68,2.72l-.08-.02s.04,0,.06.01h.02Z"/><path class="cls-1" d="M72.62,20.85l.16.53.18.6.11.4.1.32.07.2v-.08s-.09-.3-.09-.3l-.03-.15-.08-.28-.05-.19-.08-.25-.07-.23c-.04-.13-.09-.26-.13-.38l-.11-.34-.09-.28.02.04.07.18h0s-.09-.25-.09-.25c-.01-.04-.03-.08-.05-.11-.02.01-.04.03-.06.04.08.2.14.38.21.55Z"/><path class="cls-1" d="M69.15,14.01c-.46-.65-.68-.95-1.08-1.43.35.44.67.87.98,1.29.02.03.05.07.07.1.01.01.02.03.03.04Z"/><path class="cls-1" d="M61.17,6.49l.02.04c.09.06.18.12.27.18.05.03.1.07.15.1l.09.05h.03s-.38-.27-.38-.27l-.17-.09Z"/><path class="cls-1" d="M61.39,6.99l.15.16-.06.03.27.2c.17.13.34.25.51.38l.39.29-.15-.04.11.14.19.18-.07.03-.28-.17-.22-.08c-.11-.09-.22-.18-.33-.27l-.48-.28.26.24.51.56.25.33.22.3.15.12.09.02.14.17.09.21.1.21-.06.12v.15s-.11.04-.11.04l.24.14.28.06.27.08.22.19v.08s-.23-.11-.23-.11l-.29-.13c-.06.01-.12.02-.18.04l.12.17-.13.08.26.28.17.12.04.15.19.12.22.08h.28s.39.28.39.28l.33.2h.15s.11-.11.11-.11l.31-.05s.1-.02.15-.03l.18.08.28.27h.12s.27.2.27.2l.24.24s.09-.02.13-.04l-.02.14.16.13.29.28.25.26-.33-.26-.54-.47-.41-.26-.27-.1-.13.07.29.37.29.21.29.49.08.31v.19s-.18.02-.18.02l-.38-.37-.22-.06.2.25.27.2.33.3.19.05.25.14.18.07.14.1.21.18v-.11q-.16-.27-.42-.49c-.06,0-.12.02-.18.03-.04-.04-.1-.09-.15-.13.05-.08.18-.12.27-.14l.27.27.25.18.1-.05.17.2s.06-.01.08-.02l.31.35.31.49.12.24h.12s.2.19.2.19c.04,0,.08-.02.11-.03l.32.49c.12-.07.24-.14.37-.22-.44-.79-.64-1.08-1.21-1.89,0,0,0,0-.01-.01,0,0,0,0,.01.01l-.02-.03s-.01-.02-.02-.03c-1.74-2.28-1.75-2.29-2.76-3.34-.51-.49-1.17-1.15-1.7-1.62l.13.12.12.11v.03s.06.08.06.08l.34.31.39.38c.09.09.19.18.28.27l.3.34.35.39-.08-.03-.27-.26-.21-.21-.25-.27c-.15-.15-.31-.3-.46-.45l-.34-.36-.09-.03-.27-.2-.34-.26c-.15-.13-.3-.26-.45-.39l-.4-.34-.19-.2-.12-.12-.2-.13-.33-.25h-.03s-.33-.25-.33-.25l-.26-.19-.4-.27-.29-.21-.23-.13-.05.02.09.08-.04.03-.18-.09.25.24.25.22Z"/><path class="cls-1" d="M60.01,5.67l-.1-.05-.29-.16.53.3-.14-.08Z"/><path class="cls-1" d="M47.65,1.95s-.07,0-.11,0h.11Z"/><path class="cls-1" d="M53.03,24.82c.68-.3,1.37-.61,2.07-.93-.01-.06-.03-.12-.04-.17-.11-.4-.28-.77-.42-1.16-.25-.11-.46-.08-.67-.05-.06-.25-.11-.49-.17-.74-.42.1-.47.07-.65-.02,0,0-.11-.42-.27-.62-.07.01-.15.04-.21.05-.25.34-.67.24-1,.37-.06.01-.09.01-.12.02q-1.05-.38-1.09-.43c-.28.04-.56.08-.85.12-.67-.6-1.17-.08-1.47.23q-.59-.25-1.81-.18c-.16.07-.31.17-.47.23,0,.05-.02.12-.03.17q.36.09.45.16-.36,1.74-.8,1.79s-.93.13-1.02.74c-.34.18-.63.22-.93.26-.29.08-.37.43-.65.51-.14.01-.2.02-.25.03-.05,0-.12,0-.17,0q-.09-.1-.23-1.12c-1.37.11-2.45.96-3.7,1.37-.03,0-.06,0-.09.01-.1-.04-.24-.09-.34-.12-.15,0-.18,0-.21,0-.19.2-.48.26-.68.46.06.71-1.68,4.99-1.7,5.02-.04.1-.06.24-.07.35.02.16.03.24.03.3.02,0,.03,0,.05-.02,2.41-.73,4.88-1.58,7.55-2.58,3.24-1.21,6.59-2.58,9.94-4.06Z"/><path class="cls-1" d="M65.59,12.71c-.28-.25-.61-.43-.89-.67-.12-.1-.19-.25-.31-.35-.05-.04-.15-.06-.15-.06l-.04.02c.02.08.05.15.2.28.04.03.09.03.13.06q.06.05.28.27s0,.06-.02.09c-.15.02-.13.09-.1.16,0,0,.07.29-.05.28h-.02s.05.11.08.15l.04.04q.2.17.32.37c.2.34.26.36.3.37.05.02.05.02.08.04.02-.06.04-.11-.01-.34-.03-.13-.02-.15.02-.17.18-.04.35-.07.51-.1q-.22-.32-.35-.43Z"/><path class="cls-1" d="M61.16,6.43c.09.06.28.17.3.18-.01-.03-.24-.16-.47-.29l.15.1h.02Z"/><path class="cls-1" d="M65.78,12.13s-.01.06-.01.09h.01c.27.25.3.25.3.21l-.08-.27s-.05-.09-.07-.13c0-.03,0-.06,0-.08-.03-.02-.08-.04-.11-.06h-.04s-.01.02.02.09c.03.05.04.1.04.14t-.05.02Z"/><path class="cls-1" d="M53.39,2.96h-.02s0,.04,0,.04l.33.12.16.03.24.06v-.03s-.31-.1-.31-.1l-.4-.12Z"/><path class="cls-1" d="M50.03,2.2h0c.1.01.19.03.29.04l-.11-.02-.23-.03h-.01s-.01,0-.01,0h-.07s-.06-.02-.06-.02c-.05,0-.1-.01-.15-.02h-.02s-.02,0-.02,0l.2.03c.06,0,.12.02.19.03Z"/><path class="cls-1" d="M57.45,4.55l.3.15.31.13.12.03v-.03s-.27-.14-.27-.14q-.37-.16-.45-.15Z"/><path class="cls-1" d="M48.05,1.97l-.21-.02s.09,0,.14.01h.07Z"/><path class="cls-1" d="M59.59,5.44l.03.02-.07-.04.05.03Z"/><path class="cls-1" d="M57.96,4.61l.31.14-.13-.07-.49-.23-.29-.13-.37-.16c.15.06.31.14.47.21l.1.04.4.18Z"/><path class="cls-1" d="M53.67,2.99l.38.11.36.11.53.18.4.14h-.05s-.46-.17-.46-.17l-.24-.08-.38-.12-.36-.11-.18-.05h-.02s-.27-.07-.27-.07h-.01s.36.11.36.11l.39.12.3.09.31.1h-.03s-.25-.08-.25-.08l.05.03h-.06s-.2-.07-.2-.07h-.04s.14.08.14.08l.24.08v.02s.19.07.19.07l.31.13-.18-.03.09.06.23.06.03.02-.02.02.18.07h-.07s.11.09.11.09l.25.09.05.06.2.12h.08s.15.07.15.07l.05.07.19.07h.06c.12.04.23.09.35.15v.02s-.07.01-.1.02l.18.1.21.11h-.06s.08.11.08.11v.03s.17.15.17.15c.05.03.1.06.16.08-.04,0-.09.02-.14.03l.28.16.22.1s.05-.01.07-.02l.19.1.26.07.44.25.02-.05-.3-.23-.42-.37.2.08.21.09.51.39.07.13.46.3.1.14.35.19c.11.07.22.15.33.23l-.11-.16-.2-.27-.12-.15.2.15.16.15.32.35.23.15-.08-.14.11-.04-.3-.27s.05-.01.07-.02l-.24-.2-.21-.15-.36-.28-.08-.1-.03-.04.12.05.19.1h.06s-.04-.07-.04-.07c-.1-.06-.21-.12-.32-.18l-.33-.15h-.03s.05.07.05.07l-.15-.02-.34-.21-.42-.19-.44-.18-.36-.18-.28-.16-.09-.07-.3-.15-.1-.07-.24-.11-.04-.03-.33-.15-.02-.03-.35-.15.08.02.3.14.11.03h.04s-.18-.09-.18-.09l-.03-.02.17.07h.01s.25.1.25.1l.16.08.31.14.32.14.08.02.41.2.24.12.23.11.28.13.27.13h0s.18.09.18.09l.16.08-.06-.04c.07.04.15.08.22.12l.08.05.29.18.03.03.37.22.06.06.3.18h.02s-.11-.09-.11-.09l-.03-.03v-.02s.26.16.26.16l.06.04c-.1-.07-.17-.11-.24-.15l-.03-.02-.24-.14-.12-.06c-.18-.1-.36-.21-.54-.31l-.44-.24-.05-.02c-.53-.26-1.14-.57-1.7-.83l-.48-.2-.21-.09-.3-.12-.11-.04-.19-.09-.22-.09.08.03h-.01s-.22-.09-.22-.09l-.16-.06-.07-.03.07.03-.29-.11h-.03s-.05-.03-.05-.03l-.91-.31-.52-.16-.44-.12h-.06s0,0,0,0l.32.08Z"/><path class="cls-1" d="M59.29,5.28l-.3-.16-.25-.13h0s.23.13.23.13l.2.1s.09.04.13.06h0Z"/><path class="cls-1" d="M59.35,5.31s-.04-.02-.06-.03l.11.06-.06-.03Z"/><path class="cls-1" d="M38.51,3.16s-.06.01-.08.03h-.01s.05,0,.08,0h.02s.02,0,.02,0l-.03.02h0c.05,0,.09-.03.14-.05q.05-.02.1-.06h0s.08-.04.12-.06l-.06.02s.04-.03.1-.05t.03-.02h-.03s-.05.03-.05.03c-.09.03-.17.07-.26.11-.03.01-.06.02-.09.03Z"/><path class="cls-1" d="M33.73,7.07s.04-.01.05,0c.03,0,.05,0,.06,0,.13,0,.25-.08.37-.1.06,0,.13-.02.2-.02l.06-.05.02-.03.03-.11c.06-.05.12-.1.33-.21q-.05.06-.05.1t.12-.11s.05-.01.06,0l-.03.05s.07-.02.11-.02c.06-.08.14-.15.2-.25v-.02q.04-.07.04-.09s0,0-.1,0q.08-.11.07-.12c.04-.06.12-.07.14-.14,0-.04-.02-.04-.11-.03.05-.05.1-.1.15-.15-.05-.02-.11.01-.16,0l.06-.05.02-.02q.08-.08.12-.08c.03.1.14-.07.14-.07.03-.05,0-.08,0-.08-.04-.03-.09,0-.14,0,.03-.03.07-.06.1-.09l.05-.04c.08-.07.12-.16.2-.21-.02-.02-.11,0-.15.02q.18-.15.17-.17s-.03,0-.04-.01h0q.07-.08.07-.11c-.05,0-.11,0-.16.01q.13-.13.12-.14h0s-.05,0-.05,0h0s-.03,0-.03,0c-.05,0-.1.02-.15.02v-.02s.02-.03.02-.03h0s-.07,0-.07,0c0-.02.03-.04.04-.06t-.05,0h0c.05-.06.13-.07.16-.14t-.04,0h-.02s-.02,0-.02,0q-.21.08-.33.15s-.05.03-.07.05h.04s0,0,0,0c-.1.07-.13.09-.16.13.03,0,.07,0,.1,0l-.05.06h.07s-.04.03-.05.06c.05,0,.09,0,.13-.01v.03s.01,0,.01,0c0,.04-.05.05-.06.08.04.01.07,0,.11,0-.06.07-.16.11-.19.21h.05s-.05.06-.05.06v.03s.01,0,.01,0t-.02.04s.02,0,.08,0c-.06.1-.16.16-.21.27h.02s-.03.04-.03.07q-.07.07-.08.12h.02s-.05.06-.05.06h.02s.02.02.02.02l-.04.05s-.03.05-.04.09h.01s-.03.04-.07.09c-.12.11-.11.13-.11.15l-.03.03c-.09.09-.18.16-.27.24q-.58.43-.6.45s-.07.07-.1.11Z"/><path class="cls-1" d="M34.64,7.75s.09,0,.13-.01c.05-.09.11-.17.16-.26l.06-.06.03-.07c-.09.01-.18.02-.26.03-.02.03-.04.06-.07.09-.02.02-.03.03-.05.03-.07.02-.09.02-.11.07v.06s.01,0,.01,0l.06.02h.02s0,0,0,.03c-.02.04-.02.06.02.05Z"/><path class="cls-1" d="M34.56,4.19s.08-.03.12-.05h0s.08-.03.11-.04l.06-.03h0s0,0,0,0l-.05.02h0s-.05.02-.24.09c-.02.01-.05.02-.07.03h0s0,0,.07-.02Z"/><path class="cls-1" d="M19.51,18.96s.03-.07.04-.1c0,0,0,0,0,.01-.36.75-.47,1.08-.78,1.93.2-.56.51-1.26.74-1.84Z"/><path class="cls-1" d="M33.98,4.58s.1-.05.14-.08h0s-.25.12-.3.14h0s.05-.03.08-.03l-.03.02s.07-.03.1-.05Z"/><path class="cls-1" d="M36.77,3.42s-.09.03-.13.05t.13-.04c.06-.02.12-.04.18-.06h0s-.03.01-.03.01c0,0,.04,0,.27-.1h0c.11-.06.24-.08.35-.12h0c.08-.05.18-.06.27-.1-.03,0-.1.03-.37.11h-.02s-.02,0-.02,0l-.05.02s-.08.03-.12.04h0c-.06.02-.11.04-.17.06-.2.07-.2.07-.21.07h.01s-.07.02-.1.04h.01Z"/><path class="cls-1" d="M30.84,6.04h0s0,0,0,0h0Z"/><path class="cls-1" d="M37.71,3.12c-.07.02-.11.04-.15.05h0c.05-.01.11-.04.17-.05.06-.02.12-.04.17-.05l.08-.03s-.05.02-.08.02l.06-.02s-.26.08-.26.08Z"/><path class="cls-1" d="M38.34,3.31h0s.01,0,.01,0h-.01s0,0,0,0h0s-.01,0-.01,0h.01s0-.02,0-.02c-.03.01-.06.03-.09.04l-.04.02h0s-.02.03-.02.03h.03s.03-.02.11-.05Z"/><path class="cls-1" d="M35.54,3.84c-.08.03-.08.03-.15.06h.01s.03,0,.03,0h0c.08-.02.16-.06.24-.08h.05q.3-.12.43-.16l.06-.02c.06-.02.12-.04.17-.07h0s.11-.03.15-.06h-.01c.05-.04.12-.04.18-.07h0s-.04,0-.14.04q-.15.06-.16.06c.06-.03.13-.05.19-.07l-.4.13c-.16.06-.32.14-.48.18-.06.02-.12.05-.18.07Z"/><path class="cls-1" d="M34.87,4.07l-.06.03h.02s-.06.03-.1.04h.02s.04-.01.04-.01c-.09.07-.2.09-.3.15t.97-.42h0c.17-.07.34-.13.5-.2h0c-.15.05-.3.12-.45.17h0c.05-.02.11-.04.16-.07-.03,0-.17.06-.41.15h-.01s-.07.03-.11.04c-.04.01-.07.03-.1.04-.11.04-.17.07-.19.08h.03Z"/><path class="cls-1" d="M36.67,3.48h0c-.05.02-.1.03-.15.05h.01s-.06.01-.09.03l-.08.03-.06.02s-.11.05-.11.05t.06-.02s.09-.03.13-.05h0q.05-.01.3-.11h0s0,0,0,0l.04-.02h-.03Z"/><path class="cls-1" d="M33.08,6.1h.02s.03,0,.03,0l.07-.04.09-.12.03-.05h0s0,0,0,0c-.04,0-.15.06-.23.12-.03.02-.07.05-.06.07h.02s.05,0,.05,0h0s0,.02,0,.02h0Z"/><path class="cls-1" d="M17.59,25.1l-.25,1.55c-.11.88-.18,2.06-.24,2.95,0,0,0,0,0,0v.4c0,.06,0,.11,0,.17,0-.2,0-.39,0-.56-.03.7.02,1.64.03,2.34,0,0,0,0,.01.06.01.08.02.17.03.25h.01c.01.2.03.4.04.59,0,.11,0,.13.08.83.01,0,.03.01.05-.05-.03-.24-.08-.48-.1-.73-.02-.18-.03-.36-.04-.55,0-.02,0-.06,0-.09,0-.04,0-.08.04-.08.15.63.26,1.8.27,2.3,0,.1.01.19.01.27.24,0,.48.02.72.02,0-.17.03-.29.09-.36,0,.03.02.06.03.08,0,.03,0,.07.02.1,0,.03,0,.07.03.11.03.03.04.05.06.07.06,0,.13,0,.19,0,.05-.38-.25-.75-.1-1.13h.08s0-.05,0-.05q-.02-.15-.04-.26s0-.07-.01-.12q.02-.11.09-.4c.01-.58.02-.93.11-1.2l.07-.02c0,.1,0,.19.02.29.05,0,.11,0,.16,0,.03.14.14.22.21.34,0,0,.01,0,.06-.02l.05-.06c.05,0,.11,0,.18.06q.07.55.16.62h0s0,0,0,0h0s0,0,0,0h0s0,0,0,0h0s0,0,.05,0q.21.32.21.33s.4,1.13.82,1.49c.33-.03.66-.07,1-.11.28-.03.57-.08.86-.12.06-.42.09-.85-.02-1.27,0-.07-.01-.14-.03-.27,0,0-.09-.92.14-1.11.02.01.06.02.08.03.02.05.04.11.06.16q.05.02.25.21c.37-.04.29-.45.49-.62,0,0,.24-.32-.3-.29.22-.19.25-.2.34-.22.02,0,.04,0,.12-.01q.06-.17.09-.22s.06-.01.08-.02c0-.43.52-.99.52-1,.12-.01.24-.03.36-.04l.41.05.56-.06s.1-.06.14-.09c.12-.01.24-.02.35-.04.15-.08.19-.33.43-.29.12-.01.24-.03.39-.04.2-.1.15-.32.23-.48h0q.13-.17.27-.2s.05,0,.12.01c.09.03.18,0,.26.04.02,0,.05,0,.08,0,.02,0,.03,0,.09-.01.6-.13.65-.21.86-.5.12-.16.34-.22.42-.42q.13-.33.29-.54t.28-.35s.42-.24.49.08c.09.45-.14.84-.2,1.26-.5.25-.5.26-.57.39,0,.16.02.32.02.48-.03,0-.07,0-.13.02-.21.09-.44.12-.66.21-.03,0-.06,0-.12.01-.04,0-.08,0-.11,0-.03,0-.05,0-.12.04l-.03.05s.01.3.45.02c.01,0,.03,0,.07,0,.06.01.08.01.17.08.03,0,.06.02.09.02.01.41-.31.48-.31.48q-.09-.09-.32-.27s-.03,0-.09.01c-.07.04-.13.08-.2.11-.03,0-.05,0-.12.02-.09,0-.19.04-.28.03q-.12-.71-.38-.77s-.04.05-.09.14c0,.16.01.32.01.49q-.04.1-.1.13c-.03.1,0,.21-.06.31l-.04-.04c.05.85.12,1.71.26,2.59,0,0,.13.2.2.43.13-.01.25-.03.39-.02.05.06.08.15.11.23,1.77-.4,3.63-.88,5.63-1.46,0-.03.01-.06.02-.1.07-.37.49-.76.49-.76.38-.23.02-.63.12-.93,0,0,.35-.83.38-.87.09-.11.28-.08.35-.22.07-.13.04-.3,0-.43,0-.02,0-.03,0-.09l.32-.91c.11-.23.32-.39.43-.62.02-.03.04-.06.05-.09.1.07.12.25.28.21.03,0,.06,0,.13-.03.1-.09.12-.1.25-.35.08-.22.29-.4.26-.67v-.06s-.01-.05-.01-.05c0-.04,0-.09,0-.13.02-.05.06-.09.08-.14v-.06s0-.06.02-.1c.25-.07.3-.08.43-.19l-.05-.02h-.05s-.05.01-.05.01c-.16.07-.37.1-.37.1-.01,0-.03,0-.06.01-.03.03-.06.06-.08.09-.03.02-.09.05-.13.06l-.05-.04-.05-.02h-.05s-.05,0-.05,0q-.17-.03-.23-.02h-.05s-.05-.02-.05-.02l-.05-.04c-.13-.09-.26-.51-.26-.51-1.73.22-3.44.42-5.08.61,1.64-.19,3.34-.4,5.07-.66v-.05s-.06-.04-.06-.04l-.04-.03q-.1-.04-.27-.28l-.03-.04-.03-.16-.02-.04-.04-.03s-.04-.1-.06-.14c.02-.04.04-.09.05-.13v-.05c.09-.19.03-.34-.04-.49-.03-.08-.05-.2-.05-.29v-.04s.08-.12.08-.12l.04-.02.04.03.02.04.04.02s.03,0,.14-.03c.06-.07.16-.15.25-.18h.06s.04,0,.04,0c.04,0,.08.01.12.02,0,.04,0,.1,0,.14,0,.02,0,.04,0,.08,0,.04,0,.1,0,.14.19-.02.39-.05.58-.07l.06-.03.04-.02.04-.04.03-.05.14-.14.11-.14c.08-.04.19-.08.28-.08l.06.04.03.04c.03.06.05.16.04.23v.05s0,.04,0,.04l.05.03.04.02s.03,0,.14-.03c.06-.04.15-.06.22-.07h.04s.04-.03.04-.03l.03-.05.04-.06s.09-.11.13-.15l.04-.04.03-.05.04-.04.04-.02s.05,0,.1.12c0,.05,0,.13,0,.18l.04.11.11.13.04-.04.04-.05c.02-.08.02-.18.02-.26l-.03-.05-.03-.04-.05-.05s.02-.1.03-.14l.04-.04.05-.05.03-.05.04-.03.03-.05c.04-.07.09-.17.11-.25,0-.02,0-.05-.01-.11,0-.04,0-.1,0-.14-.1-.29.29-.41.23-.68-.04-.01-.1-.03-.14-.04l.05-.16s.06-.04.09-.05c0-.04,0-.09,0-.13q.71-.34.89-.22c-.02.08,0,.19.02.26.03,0,.06,0,.08-.01.03,0,.06,0,.19-.02.07-.04.17-.11.23-.16l.15.02s0,.06.01.17q-.12.13-.34.24c-.1.44-.12.51-.32.58-.05-.07-.1-.18-.11-.26-.18.1-.2.15-.29.31.08,0,.19,0,.27-.01.01.08.02.18.03.25.03.03.08.06.11.08.03,0,.05,0,.12-.01.07-.05.16-.11.24-.14.04.02.08.05.12.07,0,.04-.01.09-.02.13,0,.03,0,.06,0,.11.05.07.13.15.18.21.04,0,.1,0,.14,0,.06,0,.13-.02.26-.07.02-.09,0-.21-.02-.29.14-.2.15-.2.29-.31.02.03.04.08.06.11q.22-.1.39-.43s-.06-.07-.09-.1c-.02.04-.05.08-.07.12-.07,0-.14.02-.21.03,0-.12-.02-.23.09-.4.35-.06.33-.31.31-.54q.18-.16-.05-.62c.16-.38.6-.47.82-.79,0-.03,0-.06.01-.09.6-.17.68-.95,1.3-1.1.06-.26.08-.34.38-.28.01.08,0,.19-.03.27,0,.01,0,.03.1.09l.09.07c.01.07.02.14.03.22-.09,0-.21.02-.3.04-.03.08-.05.2-.05.29-.03,0-.06,0-.1.06q-.39.38-.31.51c-.35.39-.57.42-.67.43-.13.35-.5.45-.73.68q.02.4.02.41.11-.14.32-.24c.11-.01.22-.03.37.08,0,.03,0,.07-.07.12-.06,0-.12.02-.28.03,0,.03,0,.06.01.23.32.21.57.54.96.65.01.11.03.22.04.33.17-.02.34-.05.56-.08.25-.11.36-.38.59-.52-.02-.03-.05-.07-.07-.1-.3.04-1.2,0-1.42-.06-.06-.35.47-1.02,1.59-1.98.02-.08.09-.18.15-.24.34-.24.24-.82.73-.94.28.23.38.22.51.2.03,0,.06,0,.18-.02.18.14.18.16.24.34.04,0,.1,0,.14-.01.04,0,.08-.01.12-.02q.2-.04.42-.21h0s0,0,0,0h0s0,0,0,0h0s0,0,0,0h0s0,0,.07-.02c.55-.21.57.11.6.48,0,.03.01.06.02.08.02.08.04.17.14.25,0,0,1.1.1,1.29.35q.31.4.34.49c-.06.07-.12.17-.15.25.02.09.04.19.19.29.86-.1,1.54.48,2.34.63l-.08.03s.09.01.13.01c.02-.08.05-.19.08-.27q.26-.19.29-.22c.08.02.2.03.28.02.13-.19.19-.18.36-.16.08-.01.16-.02.23-.06q-.04-.25-.17-.39l-.02-.09s-.02-.06,0-.2q.06-.19-.35-.73c-.05-.16-.1-.33-.14-.49.09-.33-.25-.61-.08-.94l-.07-.08c-.13.02-.25.04-.46-.04-.03-.03-.07-.06-.1-.09h-.04q-.08.08-.38.17c-.23.03-.46.07-.78.14-.13.23-.4.21-.59.33-.03,0-.05,0-.12.01-.1-.02-.23-.06-.32-.1-.46-.88-.46-.89-.51-1.08.08-.12.19-.2.27-.31-.04-.14-.08-.28-.04-.51q.04-.08.26-.34s.05,0,.21-.02c.07-.04.15-.12.19-.19.03,0,.05,0,.08-.13q-.12-.09-.53-.13s-.04.09-.06.12c-.19.02-.37.1-.57.11-.01-.03-.02-.07-.03-.1l.02-.08s-.08-.1-.12-.14c.04-.02.09-.05.13-.08-.02-.08-.05-.15-.14-.23-.03.03-.08.06-.11.09,0,.03.02.05-.07.11-.04,0-.09.01-.14.02,0,0,0,0-.07.05-.09.01-.18.03-.28.04-.02-.08-.04-.15-.08-.23-.17-.02-.2-.02-.43,0-.04-.15-.08-.3-.22-.44-.04,0-.1.01-.14.02-.03,0-.05,0-.14-.02-.36-.23-.41-.25-.65-.23-.02-.08-.04-.16-.06-.24l.13-.09s-.02-.1-.04-.14c-.04,0-.1.01-.13.01-.02,0-.05,0-.07,0-.03,0-.05,0-.16.08q-.7-.38-1.01-.29s-.06,0-.23.02c-.04,0-.1,0-.14,0-.04,0-.07,0-.11.02-.01-.05-.02-.1-.03-.18.02-.08.05-.19.07-.27l-.07-.16s-.01-.05-.02-.08c-.08-.22.15-.43.03-.65-.08-.02-.18-.07-.25-.12,0-.01,0-.02,0-.1-.03-.03-.06-.07-.09-.1q-.1,0-.42-.27-.07.04-.08.59s-.1,0-.14,0c0,.04.01.07.04.16.03.03.07.07.1.1,0,.04-.03.09-.04.13h0s-.02,0-.09-.02q-.09-.09-.37-.13s-.09.01-.13.06c.05.43.18.56.24.63.15-.02.26-.12.4-.17.09-.01.18-.03.28-.03.01.04.03.09.04.13,0,.04.02.08.02.13-.05,0-.1.01-.14.02-.05.04-.1.12-.13.19-.04.02-.09.03-.13.05-.05,0-.1.01-.17-.06,0-.04-.01-.09-.02-.14-.05,0-.11,0-.15,0-.05,0-.1.01-.17.02-.08.02-.19,0-.25-.04l-.14.02c.08.5-.23.4-1.39.02-.16.12-.29.27-.44.39h-.07s-.02-.08-.02-.08c.06-.06.11-.17.13-.25q-.15-.08-.66.08l-.04-.07s.06-.07.08-.1c0,0-.2-.61-.27-.92-.07-.04-.16-.11-.21-.18-.05,0-.09.01-.14.02,0,.04,0,.1,0,.14-.02,0-.05,0-.12.11-.02.04-.04.09-.05.13-.04.01-.1.03-.14.04-.04,0-.08.01-.14-.07-.04-.07-.14-.14-.21-.16,0-.04-.02-.1-.03-.14.16-.1.22-.29.38-.38.08.04.17.12.24.17q.24-.03.39-.13s0-.1,0-.14c-.09-.02-.2-.05-.29-.09h0s0,0,0,0h0s0,0,0,0h0s0,0,0,0h0s0,0,.07-.03l.04-.04v-.06s-.01,0-.04-.02c-.03-.01-.05-.01-.05-.01-.04,0-.07,0-.1.01h-.02s0,.07,0,.07c-.04.04-.05.05-.07.06h0s-.04,0-.04,0c-.03,0-.05.02-.08.03-2.5.33-4.98.63-7.29.9,2.31-.27,4.79-.58,7.27-.97-.03-.03-.07-.09-.08-.14q-.1-.04-.23.02c-.36-.17-.66.21-1.01.12-.15-.31-.21-.3-.61-.26l-.06-.06.04-.07c.11-.01.21-.03.38-.08.02-.05.05-.1.08-.14h.03s.11.02.16.04c.17-.02.33-.04.56-.04v.06c.23.07.46-.02.67.06.01,0,.02,0,.06,0,0,0,.57-.39.7-.51,0-.05,0-.12.01-.17v-.06c.02-.22-.02-.44-.03-.66q-.85-.55-.83-.8c-.06,0-.11.02-.17.02,0-.06.01-.12.04-.24.05-.09.06-.11.19-.17l.06.06q.07-.02.19-.18h0s0,0,0,0h0s0,0,0,0h0s0,0,0,0h0s0,0,0,0q.15-.04.24-.03c.05.24.23.44.17.71l.06.06q.15,0,.24.04s.3.32.68.37q.28.39.29.39c.01.17.03.34.05.58-.04.03-.1.06-.15.08q-.03.09-.01.26c-.11,0-.21.04-.32.05,0,.02,0,.06-.01.08,0,.02,0,.05,0,.13.18.11.18.11.21.24.08.03.16.03.23.08.67-.09,1.35-.18,2.01-.32,0-.03,0-.06-.01-.09.06-.08.06-.21.18-.23,0,.04.02.09.03.13q.24.04.36.17c.38-.05.76-.1,1.14-.16q-.1-.05-.14-.19.19-.04.25-.08s-.01-.06-.02-.08q-.09-.04-.15-.18s-.1-.06-.13-.1l.05-.07s.06,0,.08,0c.06,0,.11-.02.17-.02-.01-.04-.02-.08-.08-.18-.02,0-.04,0-.07,0q-.13-.33-.14-.34s-.03-.11-.02-.16c-.14-.11-.38-.06-.45-.28-.14-.04-.27-.09-.4-.13h0s0,0,0,0h0s0,0,0,0h0s0,0,0,0h0s0,0-.06,0c-.05,0-.11-.03-.16-.05,0-.03.01-.07.01-.09l-.04-.1s-.07,0-.13.02c-.04.03-.11.06-.17.07-.2-.21-.57-.17-.69-.48.04,0,.08-.01.14-.01.03,0,.06-.01.08-.02l-.04-.09c-.33-.11-.4-.14-.47-.17v.05c-.06-.15-.17-.28-.23-.43,0,0-.21-.09-.32-.25-.05,0-.11-.03-.15-.05-.01-.11-.1-.18-.14-.27q-.24-.06-.32-.05s.01-.06.02-.09c.1-.03.3-.08.5.07q.12-.02.3.06s.06,0,.09-.01l-.06-.06h-.05s-.08-.09-.08-.09h-.05q-.1-.1-.25-.08l-.06-.06.04-.07s-.04-.01-.24-.02c0-.05,0-.1-.02-.15-.03,0-.06.01-.08.02,0,.05.02.12.03.17q-.2.1-.21.1l-.07-.03s0-.03,0-.08c.04-.03.08-.07.12-.11-.02-.02-.05-.06-.08-.08-.02,0-.06,0-.08,0l-.06-.06s-.04.11-.06.15c-.07-.01-.23-.04-.14-.32,0-.03,0-.06-.02-.09-.14.02-.22.17-.35.21-.02.05-.04.11-.06.16q-.04-.08-.03-.24s-.06,0-.15.03q-.19.05-.23.08s-.06,0-.09.01c0-.04,0-.07.02-.11q.21-.06.23-.19c-.09-.04-.11-.05-.23-.06-.05,0-.1.01-.11.05,0,.02,0,.06,0,.08l-.07.04h-.03s-.07-.08-.08-.12c-.07-.03-.16-.03-.22-.08h-.01s-.05,0-.05,0l-.03.12s-.06,0-.11.02c-.07.08-.08.08-.08.22l-.04-.03s0-.03,0-.09c0-.05.02-.11.04-.16l-.29.04s0,.03,0,.05l.04.07s-.01.07-.06.1c-.03,0-.06,0-.09,0,.01-.05.02-.1.04-.15-.34.08-.46.21-.5.26.01.03.03.06.04.09.02,0,.06,0,.08,0,0,.02,0,.04-.05.07-.13.05-.25.12-.39.16l-.06-.06s-.09.01-.13.02c-.06.12-.08.13-.16.18,0,0,0,.02-.01.06,0,.03,0,.06,0,.08l-.07.05s-.03,0-.1-.04l.03-.08s-.09.01-.17.04c-.07.06-.14.1-.21.15,0,0-.02,0-.1,0-.19,0-.24.03-.32.09-.06.03-.13.07-.17.11l-.76.37s-.92.58.08.8h.05s.04-.01.11-.02c.13-.03.24-.11.37-.16.12-.01.23-.03.42-.07,0,0,.61-.34.79-.41-.11.41-.69.42-.76.88l-.06.19c-.06,0-.12.01-.17.02l-.65.66-.05-.07c-.09.01-.19.02-.28.02,0-.02,0-.06,0-.08.12-.12.16-.15.3-.14.02,0,.04,0,.09-.05l.03-.08c.18-.07.17-.16.16-.23-.05-.01-.1-.05-.13-.08-.03.05-.14.2-.55.33-.02,0-.04,0-.07.01q-.07.03-.32.07h0c.05-.19.26-.28.33-.46h.01s-.07,0-.09,0q-.05-.12-.25-.16s-.05-.1-.06-.15q-.36.05-.37.06l-.03.06q-.06.04-.23.08c.03-.1.09-.19.1-.29l.02-.04q.16-.14.21-.16c.13-.12.13-.14.1-.23.05-.11.11-.22.24-.37.03,0,.06-.02.09-.02.02-.04.04-.08-.02-.11-.03,0-.06,0-.09.01-.13.01-.15.02-.23.09h-.02s-.06,0-.09-.01q-.11.1-.19.17s-.09.05-.13.08c-.03.06-.07.12-.1.18.09,0,.17-.02.25-.01q-.03.06-.41.43s-.01,0-.04,0q-.21-.06-.26-.14s0-.02.17-.19l-.06-.06s-.11,0-.16-.01c-.05-.14-.06-.14-.17-.16-.01,0-.03,0-.11-.01-.01-.03-.02-.06-.04-.09-.02,0-.06,0-.08.01-.02,0-.04,0-.1-.02l-.04-.07s-.06,0-.08,0l-.04-.07q-.21.32-.33.4s-.08.01-.12.01c.04-.05.07-.1.07-.15-.03,0-.06,0-.09.01-.01,0-.03,0-.09.02-.02,0-.03,0-.09,0,0-.03,0-.06,0-.09-1.08,1.41-2.03,3.04-2.83,4.84.8-1.8,1.75-3.42,2.79-4.83l-.06.02h-.04s-.06-.02-.06-.02l.03-.06-.02-.06s-.03,0-.06.02t-.26.32l-.06.02c0-.06.04-.12.04-.19-.01,0-.02,0-.07-.04.21-.44.75-.46,1.04-.8v-.06s-.02,0-.07.02c-.07.02-.12.07-.18.11-.15.07-.27.17-.42.24-.06,0-.12.01-.19.03-.06.04-.11.08-.17.11-.05,0-.11.01-.2.03-1.18.7-1.24.7-1.31.71-.01,0-.02,0-.06,0q.19-.24.38-.36c.51-.3.66-.38.73-.55.02-.11.28-.28.34-.33.01,0,.02,0,.06-.02l.05-.04s.02-.02.06-.06l.03-.07s-.02,0-.07-.04c0,0,.44-.45.54-.6h-.06s0-.07,0-.07l-.07.02h-.05c-.09.02-.16.07-.25.09l-.38.31s.06,0,.08,0c-.12.1-.25.21-.38.33-.47.34-.49.36-.81.7-.02.02-.04.04-.08.08q-1.01.96-1.01,1c-.2.31-.18.37-.15.43.09-.01.17-.05.26-.06-.02.04-.04.08-.05.12l-.06.03c-.07,0-.13.01-.24.05q-.15.09-.25.1l.03-.06s.04-.04.07-.1c0-.04,0-.09,0-.13h-.07s.63-.75.7-.89l-.04-.05c-.11,0-.34.16-.48.27.24-.21.45-.45.74-.59,0,0,0,0-.01.04-.02.04-.05.08-.07.11.04,0,.09,0,.16-.02.18-.13.33-.3.5-.43l.03-.03q.08-.1.73-.6l.03-.03s.14-.15.22-.28h-.06s.05-.03.08-.06t.41-.32h0s0,0,0,0h0s0,0,0,0t-.04,0q-.19.13-.6.46s-.08.07-.13.11c-.22.2-.53.23-.77.4,0,0,.22-.18.48-.28h0s0,0,0,0h0s0,0,0,0h0s0,0,0,0h0s0,0,.04,0c.1-.05.2-.1.31-.27h-.02q-.17.06-.19.06c.13-.11.13-.11.29-.15l.06-.06-.02-.06-.06.03c-.05.03-.12.08-.18.11-.04,0-.08,0-.12.01q-.5.27-.53.27l.05-.05s.04-.03.08-.06c.18-.13.24-.15.29-.17h.03c.12-.03.78-.5.81-.53-.03,0-.06,0-.09,0l.05-.04.03-.05s-.05,0-.08-.02c-.04,0-.09.01-.13.02l.02-.06-.06.02.05-.04s.05-.03.09-.06q.71-.46.85-.62l-.06.02c.06-.04.11-.09.17-.13l-.02-.02c.09-.06.2-.1.28-.17l-.07.03s0,0-.03,0q-.21.09-.25.1s.08-.05.12-.07c.03-.01.05-.03.1-.05h0s0,0,.04-.03c.04-.02.1-.05.14-.07h-.06q.15-.07.89-.45h-.04c-.06.02-.12.05-.17.07-.25.13-.32.15-.36.17h-.02c-.08.04-.17.08-.25.12-.03.02-.07.04-.1.05l-.07.03h0c.09-.04.17-.08.22-.12-.04.02-.1.04-.14.06.03-.02.08-.04.11-.06l-.06.02s0,0-.04.01c-.19.09-.39.18-.58.28h0c-.15.08-.27.14-.43.22,0,0,0,0-.04.02-.08.05-.17.09-.25.14,0,0,0,0-.04.03-.28.15-.3.17-.36.21h0s-.08.05-.11.07c-.04.02-.1.06-.13.09,0,0,0,0-.05.03-.17.11-.63.42-.64.42h-.02s0,.01.03-.02h0s.05-.05.05-.05h.01s.08-.07.12-.09c.01,0,.03-.02.06-.03.06-.04.12-.07.19-.11l.04-.02h0c.14-.09.28-.17.41-.26l-.06.03s-.03.02-.06.03c-.21.12-.24.15-.3.19-.05.03-.12.07-.17.09.06-.04.12-.07.18-.11-.12.06-.23.13-.34.2h0s.05-.03.05-.03l-1.53,1c-1.07.72-1.39,1-3.42,2.8q-1.06,1.02-2.93,3.27l-.12.16c-.72,1.03-1.63,2.44-2.27,3.52-.62,1.09-.78,1.48-1.81,4.02,0,0,0,0,0,.01,0,0,0,0,0-.01h0c-.49,1.37-.51,1.44-1.17,4.29ZM29.36,8.71c.09-.05.17-.11.26-.17,0,0-.01.01-.01.01-.03.03-.06.06-.09.09q-.08.08-.34.26s-.02,0-.06-.04c.07-.07.17-.1.25-.16Z"/><path class="cls-1" d="M42,11.33s.14.03.2.09t.06.2q.05.2.2.39l-.07.02v.06s0,0-.14,0c-.05,0-.09.01-.13.02q0,.09.02.17c.09-.01.18-.02.28-.04,0,.07.01.14.02.21.1-.02.15-.02.18,0,.05.06.1.11.16.05l.09-.04s.05,0,.07-.01c.17-.03.2.09.25.29.16-.02.33-.04.49-.07,0-.05.02-.1.01-.15v-.03c-.02-.07-.09-.1-.1-.17q0-.05.06-.12c.11-.11.15-.15.15-.29v-.07s-.02-.04-.02-.07c0-.03.07-.14.07-.14l.07-.04c.07-.06.07-.19.07-.21,0-.05-.06-.02-.08-.06v-.03c-.01-.1.11-.15.1-.26-.67.09-1.35.18-2.01.27Z"/><path class="cls-1" d="M20.92,44.05s.03.05.05.08l.03.06s.03.05.04.08l-.02-.06s-.03-.06-.05-.09c-.01-.03-.03-.05-.05-.08Z"/><path class="cls-1" d="M17.11,31.26c0,.14,0,.28.01.42,0-.02,0-.05,0-.07,0-.11,0-.23,0-.34Z"/><path class="cls-1" d="M30.88,6.01s-.04.02-.04.02c.02-.01.03-.02.03-.02l.07-.04-.06.04Z"/><path class="cls-1" d="M74.14,27.12l.02.23.03.33c.01.14.03.28.04.41v.17c-.01-.4-.04-.79-.08-1.13v-.02Z"/><path class="cls-1" d="M30.88,6.01l-.04.03.04-.03s0,0,0,0Z"/><path class="cls-1" d="M17.14,31.97c0-.11-.01-.2-.01-.29,0,.09,0,.19.01.28,0,0,0,0,0,.01Z"/><path class="cls-1" d="M44.66,11.05l.04.06s.06.04.08.05t.12,0s.03,0,.05.03c.04.06.16.06.16.06.04,0,.06,0,.06,0,.05-.02.09-.05.14-.07.04,0,.1.01.14.02q.06-.1.07-.11l.02-.04s0,0,.21-.03v-.05s0-.05,0-.07t-.04-.05h0c-.38.04-.76.1-1.13.15.03.03.07.04.09.07Z"/><path class="cls-1" d="M44.15,1.96c.05,0,.11,0,.16,0h-.02s.21,0,.21,0h-.15s-.01.01-.01.01h-.1s.22,0,.22,0h.23s.03,0,.03,0h-.11c.08,0,.17,0,.25,0q.32,0,.36,0c.1,0,.2,0,.29,0h.02s.02,0,.02,0h.11s.21,0,.21,0h-.03s.05,0,.05,0c-.05,0-.06,0-.22,0,.06,0,.14,0,.2,0h.15s.04,0,.04,0c.26,0,.52,0,.78.02h.13s.22.01.22.01h.01s.02,0,.02,0h.1s.32.04.32.04h.16s.04,0,.04,0l-.2-.02h.04s.29.03.29.03c.11,0,.22.02.33.02h-.05s-.19-.03-.19-.03h.01c.14,0,.28.02.42.03l.23.02h-.15s-.17-.03-.17-.03c.09.02.48.07.48.07h.03c.21.01.41.05.62.07h0s0-.01,0-.01l.3.05.33.05h.08s.34.07.34.07l-.18-.02.25.05c.24.04.25.04.53.08h0s.04,0,.04,0t-.28-.06h0s.06,0,.08,0q-.05-.02-.14-.03c.06,0,.13.02.19.03-.04-.01-.08-.02-.13-.03.04,0,.11.02.15.02l-.16-.03h-.05s-.02-.01-.02-.01c-.07-.01-.13-.02-.2-.03-.12-.02-.25-.04-.37-.06h-.05s.13,0,.13,0h-.05c-.23-.04-.46-.08-.7-.11.14.03.29.05.43.07h-.03s-.26-.03-.26-.03l-.31-.04c.13.02.26.03.38.05h-.03s-.26-.05-.26-.05l-.21-.03h.05s0,0,0,0h-.07s-.19-.03-.19-.03c-.09-.01-.17-.02-.26-.03l-.16-.02h.01s-.04,0-.06,0h-.03s-.05,0-.05,0h.07s.4.06.4.06c-.09-.01-.19-.02-.28-.03-.1-.01-.2-.01-.31-.03l-.16-.02-.22-.02c-.05,0-.1,0-.15-.01h-.01s-.03,0-.03,0h.03s-.28-.02-.28-.02h-.05c.1,0,.2,0,.3.04h-.05s-.08-.01-.08-.01l-.24-.02h-.14s-.04-.02-.04-.02c-.08,0-.16,0-.24-.01h-.05s0,0,0,0c-.06,0-.12,0-.18,0h-.1s-.03,0-.03,0h0s-.19,0-.19,0h-.02s-.04,0-.04,0h.03c-.16,0-.31,0-.47,0h-.03s-.04,0-.04,0c.12,0,.23,0,.35,0h.22s.24.01.24.01h0s-.05,0-.05,0c.11,0,.22,0,.33.01h-.04s.02,0,.02,0h-.29s-.29-.02-.29-.02h-.22s.05,0,.05,0h.17s.29.01.29.01q-.09,0-.54-.02h-.29s-.05,0-.05,0h-.05s-.22,0-.22,0h.03s-.19,0-.19,0h0s0,0,0,0c-.07,0-.12,0-.16,0h0s-.03,0-.04,0c-.02,0-.04,0-.05,0-.13,0-.26,0-.4,0h-.05s.17,0,.17,0h-.04s.01,0,.02,0h-.25c-.06.01-.13.01-.2.02h.05s0,0,0,0h-.19s0,0,0,0c.09,0,.18,0,.26,0h0c-.24,0-.42.02-.5.02h.05c.1,0,.21,0,.31-.01-.1,0-.2,0-.3.01.07,0,.13,0,.2,0-.12,0-.24.01-.36.02.04,0,.08,0,.12,0ZM45.29,1.9h.02c.08,0,.17,0,.25,0-.19,0-.38,0-.57,0h0c.1,0,.2,0,.3,0Z"/><path class="cls-1" d="M20.58,43.29c-.09.01-.17.02-.26.03.01.02.03.05.06.11.01.03.03.06.04.08.08.15.26.49.27.5.01.03.03.06.04.08.05.09.14.15.21.23-.15-.34-.25-.69-.37-1.03Z"/><path class="cls-1" d="M42.97,2.11s.11,0,.16,0c.06,0,.11-.02.16-.03.02,0,.05,0,.08,0,.07,0,.07,0,.07,0h.08s-.05,0-.05,0h-.08s-.02,0-.02,0h-.02s0,0,0,0h-.03s.04.02.02.02c-.05,0-.05,0-.05,0,.02,0,.06,0,.08,0,.05.02.04.02.04.02h-.05s.08.01.12.02q.15,0,.24,0c.1,0,.14-.01.18-.02h.08c.08,0,.13-.01.18-.02.18,0,.36.02.41.02-.02,0-.06,0-.08,0-.03,0-.03,0-.03,0h0s0,0,0,0h0c-.05,0-.05,0-.05,0h0s0,0,0,0h0s0,0,0,0c-.04,0-.11,0-.15,0-.08.01-.1.01-.12.02-.03,0-.06,0-.09,0l.02.02h.08s.04,0,.04,0q.09,0,.24.02c-.19,0-.38-.03-.57-.02h-.01c.09.02.14.03.32.05.05,0,.09.02.13.02.16.02.32.04.48.07-.14-.01-.27-.04-.41-.04-.06,0-.06,0-.06,0h0s0,0,0,0h0s0,0,0,0h0s0,0,0,0c-.17,0-.55-.02-.55-.02-.07,0-.08,0-.08,0h0s0,0,0,0h0s0,0,0,0h-.04s-.06.02-.08.02l.05.04q.13.04.24.04s.05,0,.05,0c.11,0,.21.04.31.04.03,0,.04,0,.04,0,.05,0,.11,0,.16,0h0s-.09.03-.13.03l.05.02c.61.08.86.16.86.16.07.01.07.01.08,0q.1,0,.25.06h.05q.38.11.4.12c.09.03.12.04.23.09q-.24-.02-.31.01s.1.05.14.06c.04,0,.05,0,.05,0,.08.01.14.03.19.06-.05.01-.06.01-.08.02-.02,0-.06,0-.08,0,.03.07.04.07.04.08.02,0,.06.02.08.02.18.08.31.15.43.23h.06q-.11-.08-.3-.15h-.02c.02-.08.04-.08.05-.09.13,0,.14,0,.24.02h.04s.07.05.07.05c0,.02,0,.05.01.08-.02,0-.06.01-.08.02.04.03.09.07.12.1.1.08.15.1.19.13.04,0,.1,0,.14,0q.2.1.27.18l-.03.08s.1.05.14.05c.03,0,.05,0,.06,0,.04,0,.09.01.13.02q.34.05.35.06s-.11,0-.16,0c.01.1.03.18.3.2.04-.05.05-.05.06-.05.04,0,.11.01.15.03.08,0,.12-.01.16-.02-.05-.03-.1-.06-.14-.09.04,0,.09-.01.13-.02l.06.02s0,.05,0,.08q.21.06.23.07s-.07.01-.11.02q-.16-.04-.23-.02s.07.09.11.11c.06.04.08.05.09.06q.14.1.22.13c.07,0,.08,0,.09,0,0-.02,0-.06,0-.08.03,0,.06,0,.08-.01q0,.06.21.32c-.08.32.4.25.59.38l.08.02.03-.07s-.03-.03-.19-.17c.14-.02.27.04.41.01h.03c.11.02.15.05.19.08l.06.05v.08s-.07.03-.09.04c-.07.01-.09.02-.1.02,0,.03,0,.06.01.09-.05.06-.06.06-.07.06l-.14-.04s-.11-.04-.15-.05v.03q.07.06.29.13c.13,0,.19-.01.26-.02.57.1,1.08.5,1.7.4l.02-.08s.08-.02.11-.05v-.03s0,0,0,0v-.02s0,0,0,0h0s0-.01,0-.01c.03-.01.04-.01.04-.01h.01q.14.12.38.21c.05.03.07.04.09.06l.12.02q.22.12.3.13c.16.07.33.12.48.2q.08.06.23.06s.06-.01.07-.01c.19.05.33.22.55.15q-.04-.08-.17-.18s.06-.03.1-.04c.08.06.1.06.21.16.1,0,.17,0,.25-.02q.67.43.86.51c.12.09.22.18.33.26.2.08.35.25.58.24.03,0,.05,0,.06,0,.08,0,.21,0,1.2.91.05.05.07.07.1.09.18.17.37.14.44.13,0-.04-.02-.11-.05-.14.03-.04.06-.09.09-.13-.03-.04-.07-.09-.1-.13.04-.06.05-.06.06-.06.02,0,.05,0,.08,0,.07.02.09.02.1.01,0-.05,0-.11-.02-.15l.05-.07c-.51-.91-.83-1.06-1.27-1.28-.11-.07-.2-.14-.29-.2.14-.03.25.09.38.1q-.05-.1-.53-.38c-.06,0-.07,0-.08,0-.04-.02-.1-.06-.14-.09,0-.04,0-.04,0-.04.05.01.12.03.17.04q-.04-.11-.74-.62c-.08-.05-.09-.06-.11-.07-.11-.07-.25-.08-.36-.13-.14-.02-.26-.09-.38-.16-.05.02-.06.02-.07.02h0s-.12-.03-.16-.04c-.07,0-.1.01-.12.02-.07-.04-.14-.08-.22-.12-.04-.03-.09-.06-.12-.1-.05-.04-.07-.05-.08-.05-.08-.03-.15-.06-.22-.08-.04-.02-.06-.02-.07-.03l-.07-.04s.05-.04.06-.05v-.08s.03-.02.04-.02l.09.03v.08c.05.05.13.09.22.14q.1-.02.32.06-.12-.15-.14-.21l-.82-.25.06.05-.04.04h-.05s-.05.03-.06.03l-.08-.03c-.08-.04-.1-.05-.18-.14h0s0,0,0,0h0s0,0,0,0h0s0,0,0,0q-.05-.08-.26-.18.09-.03.24.04s.07-.01.1-.02c.01-.03.02-.03.02-.03l-.06-.06c-.07-.03-.13-.05-.18-.08h-.04c-.1-.03-.2-.08-.3-.11l-.07-.02c-.07-.02-.13-.04-.18-.06h.04s-.11-.05-.16-.07c-.12-.04-.19-.07-.26-.09q-.15-.07-.23-.09c-.06-.02-.07-.02-.08-.03l-.09-.04h-.02s-.11-.05-.16-.07c-.06-.02-.11-.04-.17-.07h-.04s-.05-.03-.05-.03h-.03s-.07-.04-.09-.05h-.04s-.08-.04-.11-.05h-.02s0-.02,0-.02h-.02s.01-.01.01-.01h0s-.04-.02-.04-.02h-.04s-.08-.04-.08-.04c-.1-.03-.19-.05-.29-.08l-.09-.03h0s-.02-.02-.02-.02l-.11-.04h0s0,0,0,0l-.02-.02-.06-.03h0s.04-.01.04-.01h0s-.01-.01-.01-.01h-.04s-.06-.04-.06-.04h0s.02-.01.02-.01h-.01s-.07-.03-.07-.03h.08s.05.02.05.02h.02s0,0,0,0h0s.02,0,.02,0h.03s.03,0,.03,0h.05s0,0,0,0h-.03s.02-.01.02-.01c.03,0,.06.01.09.02h.01s-.02,0-.02,0h0s-.01,0-.01,0v-.02s.12.03.17.04h.04s.04.02.04.02h0s0,0,0,0h-.02s-.04-.03-.04-.03h-.01s-.05-.03-.05-.03h-.02s-.01-.01-.01-.01h-.02s-.04-.02-.04-.02h-.04s-.04-.02-.04-.02h-.03s-.04-.02-.04-.02h-.04s-.04-.02-.04-.02h-.04q-.15-.05-.18-.06h-.04c-.1-.03-.12-.04-.21-.05h-.02s-.09,0-.13-.02h0s.03.02.03.02h0s-.07,0-.07,0h-.02s0,0,0,0h0s0,0,0,0h0s.03,0,.03,0h0s.02,0,.02,0h0s0,0,0,0c-.04,0-.1-.01-.14-.02h-.03s-.06-.01-.08-.02c-.07-.01-.13-.02-.2-.03h0s0,0,0,0c.07,0,.08,0,.08,0h.03s.07,0,.07,0h.01s-.08-.03-.08-.03h0s-.08-.02-.08-.02h.03c-.21-.04-.41-.09-.62-.11h-.01s-.03,0-.03,0h-.05s-.05-.01-.05-.01h-.05s-.05-.01-.05-.01h-.02s-.01,0-.01,0h-.03s-.08,0-.08,0c-.07,0-.07,0-.08,0h-.03s-.05,0-.08-.01c-.04,0-.05,0-.08,0h-.07s-.08,0-.08,0h.02s0,.02,0,.02h-.06s-.08,0-.08,0h0s0,0,0,0h-.05s-.05,0-.05,0c-.05,0-.11-.01-.16-.01-.13-.01-.2-.02-.27-.03h-.05s-.04,0-.04,0h-.04c-.08-.01-.16-.02-.24-.03h.06s.01,0,.01,0c.06,0,.06,0,.06,0h-.04s-.03,0-.03,0c-.03,0-.03,0-.03,0-.04,0-.11,0-.15,0h-.05c-.05,0-.12,0-.17-.01h-.01s0,0,0,0h-.04s-.06,0-.06,0h-.05s-.04,0-.04,0h-.04s0,0,0,0h-.04s-.04,0-.04,0c-.04,0-.1,0-.15,0-.08,0-.16,0-.24,0-.04,0-.09,0-.13,0h0s.04,0,.04,0h.03s0,0,0,0c-.12,0-.24-.01-.37-.01h-.05s-.04,0-.04,0h-.04c-.06,0-.13,0-.19,0h-.09s-.01,0-.01,0h-.06s-.02,0-.02,0h-.04s.03,0,.03,0h.04s.04,0,.04,0h.04s.07,0,.07,0h.07s0,0,0,0h0s.03,0,.03,0h.03s.03,0,.03,0h.04s.05,0,.05,0h0s.02,0,.02,0h-.01s-.04,0-.04,0h-.08s-.02,0-.02,0h-.08s-.02,0-.02,0h0s0,0,0,0h0s0,0,0,0h-.05s-.05,0-.05,0h-.04s-.04,0-.04,0h-.04s-.03,0-.03,0h-.02s0,0,0,0h0s0,0,0,0h-.05s-.04,0-.04,0h-.05s-.01,0-.01,0h-.02s-.02,0-.02,0h-.05s-.03,0-.03,0h-.01s-.01,0-.01,0h0s-.05,0-.05,0h-.02s-.02,0-.02,0h0s-.02,0-.02,0h-.07s-.08,0-.08,0h-.05s.03,0,.03,0h.07s.03,0,.03,0c.04,0,.09,0,.13,0h.04s.04,0,.04,0h.06s.04,0,.04,0h.04s.04,0,.04,0h.04s.1,0,.15,0c.03,0,.06,0,.08,0,.03,0,.04,0,.06,0h.08s-.03,0-.03,0h-.06c-.07,0-.15,0-.23,0h-.04s-.04,0-.04,0h-.05c-.09,0-.17,0-.26,0-.1,0-.12,0-.15,0h-.01s0,0,0,0h.04s.04,0,.04,0h.05s.03,0,.03,0h.02s0,0,0,0h.08s.02,0,.02,0h.02s.11,0,.11,0h.04s.03,0,.03,0h.02s.04,0,.04,0h.03s.04,0,.04,0h0s0,0,0,0h0s-.06,0-.06,0c-.04,0-.09,0-.13,0h-.04s-.08,0-.12,0h-.05s-.03,0-.03,0h-.1s-.02,0-.02,0h0c-.05,0-.13,0-.18,0-.02,0-.06,0-.08,0h.06s-.01,0-.01,0h.02s0,0,0,0h.02s0,0,0,0h.08s.02,0,.02,0h.04s.02,0,.02,0h.04s0,0,0,0c.02,0,.06,0,.08.01h.04s0,0,0,0h.02s.04,0,.04,0h.01s.02,0,.02,0h-.13s-.04,0-.04,0h-.04s-.04,0-.04,0h-.11s-.08-.01-.08-.01h-.03s0,0,0,0h0s0,0,0,0h-.02s0,0,0,0h-.1s-.04,0-.04,0h-.12s-.04,0-.04,0h-.04s-.02,0-.02,0h0s0,0,0,0h.03s0,0,0,0h.02s0,0,0,0h0,0s.04,0,.04,0h.04s.02,0,.02,0c-.07,0-.15,0-.22,0h-.04s-.04,0-.04,0c-.04,0-.04,0-.04,0h-.02s-.04,0-.04,0c-.05,0-.11,0-.16,0t-.03,0h-.02s-.03,0-.03,0c-.05,0-.11,0-.16,0,.03,0,.06,0,.08,0,.06,0,.05,0,.04,0-.14.01-.27,0-.41.01h-.01s0,0,0,0c-.06,0-.11,0-.17,0-.02,0-.06,0-.08.01h.02s0,.01,0,.01Z"/><path class="cls-1" d="M52.44,7.15s-.08-.11-.12-.16c-.11,0-.31-.02-.47.07-.04-.05-.12-.05-.11-.13l.04-.15h.11c.07,0,.14.01.21,0-.33-.46-.73-.18-.74-.17-.03-.03-.06-.07-.09-.1h-.12s0,.07.03.1c.03.03.06.06.09.1.03.03.06.07.09.1-.06,0-.12.02-.18.03-.16,0-.3-.08-.46-.07-.08,0-.1.02-.16.04-.04.02-.08.07-.14.06-.16-.01-.28-.12-.44-.14-.05,0-.07,0-.09,0-.08.01-.15.02-.23.03q.07.1.28.33-.11.03-.16.08s.02.07.03.11c.05.07.1.14.15.21q.38-.06.47-.05c.14.02.18.04.28.1.06.04.13,0,.19.02,0,0,.16.07.19.09q.19.14.28.16c.08.02.15-.02.23-.02.16,0,.15-.12.15-.12q-.02-.1.08-.1s.07-.01.11-.02c.11-.02.21-.01.32-.02.03,0,.06,0,.09-.01l-.05-.12c-.06-.07-.12-.14-.19-.21v-.03c.06-.01.13-.02.19-.03.04,0,.08,0,.12.01Z"/><path class="cls-1" d="M21.29,45.32c-.03-.06-.08-.12-.1-.18h0s.02.02.02.02c-.02-.06-.06-.1-.08-.15.03,0,.03.03.05.03.02.03.04.06.07.09h0s0-.02-.03-.06q-.06-.11-.07-.15h.02c-.03-.06-.06-.12-.1-.18h.03s-.04-.06-.06-.1c-.07-.03-.17-.06-.22-.1.01.03.07.14.07.14l.3.51c.03.05.06.1.09.15h0s0-.01,0-.01Z"/><path class="cls-1" d="M45.34,1.89h0s-.12,0-.12,0c0,0,.01,0,.03,0,.02,0,.04,0,.05,0,.01,0,.02,0,.04,0Z"/><path class="cls-1" d="M48.15,1.99c.15.01.3.02.45.04.05,0,.09,0,.13.01h.04s-.11,0-.11,0h-.07s.01,0,.01,0c-.07,0-.14-.01-.21-.02-.1,0-.19-.02-.29-.02h-.12s0,0,0,0h.16Z"/><path class="cls-1" d="M59.03,31.39l-.02-.19c.02-.23.08-.46.08-.69q-.35-.27-.37-.31c-.02-.22-.03-.28-.03-.34-.01-.12-.03-.21-.04-.31-1.88,1.08-3.75,2.1-5.61,3.04-3.94,1.99-7.61,3.63-11.2,5.01-2.76,1.06-5.04,1.87-7.19,2.54-.04.01-.07.02-.11.03,1.03.68,1.98,1.43,2.48,2.62l.02.08c-.12.55.38,1.07.09,1.63.04.38.15.7.26,1.01-.01.1,0,.25.04.35.05.14.08.21.11.29.72,1.06,1.98,1.25,2.97,1.88q.01,1.09.12,1.4c.37.12,1.36.56,1.36.56-.12,1.12,2.03,1.91,2.05,1.92q.11.21.85.24s.05.1.07.14c.37.06.63.02.88,0q.22.01.52.08c.23-.03.44-.05.63-.08.23-.15.22-.18.18-.38.04,0,.08-.01.13-.02.03-.03.08-.07.11-.11-.06-.08-.16-.16-.24-.2-.05-.06-.05-.08-.06-.1.13-.26.12-.3.07-.48.47-.62.74-2.06.74-2.08-.03-.24-.07-.48-.1-.72q.08-.12.16-.81c.37-.28.37-.42.37-.89.27-.2.31-.23.25-.73-.12-.91-.98-1.48-1.08-2.4.17-.1.2-.12.19-.44,0-.06-.01-.11-.02-.17-.02-.04-.04-.1-.06-.14.57-1.06.46-2.46,1.59-3.25-.02-.05-.06-.11-.09-.15-.05,0-.11,0-.16.02-.18-.3-.5-1.64-.51-1.65-.06-.29-.09-.47-.11-.66.52-.07,1.04-.14,1.55-.21.31-.11.46-.16.53-.95.11-.07.5-.27,1.01.08.03,0,.06,0,.08-.01.75-.17.92-.21,1.15.22.74.06,1.05.09,1.15-.27.17-.02.34-.06.51-.08.16-.02.19-.02.23-.03.22.03.43-.08.65-.07.05.1.12.22.17.32,0,0,.59.04,1.46-.95q-.04-.31,0-.5c1.07-.38,1.03-.74.97-1.24.01,0,1.27-.97,1.21-1.82Z"/><path class="cls-1" d="M38.04,49.76s-.05-.09-.07-.14c-.05-.11-.02-.24-.07-.35-.01-.02-.02-.05-.03-.07-.03-.03-.03-.03-.08-.06-.17-.08-.16-.3-.29-.41q-.24-.21-.27-.19s-.07.04-.1,0c-.02-.03-.12-.25-.12-.25-.01-.04-.01-.05.03-.11.05-.07-.17-.54-.17-.54-.06-.1-.18-.14-.25-.23-.07-.09-.05-.22-.13-.3-.06-.06-.15-.05-.22-.07-.26-.08-.51.16-.77,0-.1-.06-.11-.19-.21-.26-.05-.04-.11.03-.16-.01-.02-.02-.03-.04-.04-.1,0-.02-.14-.22-.18-.23q-.46-.24-.53-.3s-.02-.02-.13-.31c-.29.15-.32.27-.32.32l.31.84s.03.05.03.07c.08.11.23.13.31.24,0,.03.02.05.04.07.01.05.02.1.04.15.02.05.05.1.07.15.06.11.18.17.26.26.12.14.05.34.16.48.05.07.14.05.21.08.12.06.27.03.38.14.16.17.18.42.33.6.11.13.28.17.39.29.17.2.22.49.43.67.4.34.79.2.94.12,0-.04-.02-.07-.02-.11.14-.03.28-.03.42-.06q-.08-.15-.17-.38Z"/><path class="cls-1" d="M48.16,14.25q.08.03.17.02s.02,0,.15.08c.11.07.23-.01.35,0h.05c.1-.03.13-.15.22-.17.11-.03.13.13.24.1.15-.04.3-.04.45-.08.04.03.05.04.1.2.07-.01.14-.02.22-.03q.12-.08.15-.07t.13.09.29-.04q-.27-.05-.35-.3c-.07,0-.15,0-.22,0-.08,0-.1-.11-.19-.1-.17.03-.27,0-.29,0-.04-.01-.06-.06-.06-.13.1-.09.25,0,.36-.1.11-.11.24,0,.36-.02.04-.09.02-.12-.03-.23h0s0,0,0,0h0s0,0,0,0h0s0,0,0,0h0s0,0,0,0t-.24-.11s-.06,0-.08,0c-.04-.06-.05-.09-.07-.14.11-.04.24,0,.34-.09l-.04-.07s-.09.02-.13.02l-.05-.07q-.08-.07-.15-.05h-.03c-.13.02-.21.19-.36.12-.09-.04-.1-.08-.09-.16.01-.06-.05-.14-.08-.19l.03-.02c.19-.12-.07-.35.1-.48l.06.06c.11-.02.23-.03.34-.05q.02-.09,0-.13c-.04-.08-.15-.02-.19-.09-.05-.07.02-.17-.04-.24l.04-.08q.07.07.08.11c.05.01.1,0,.14,0t.02-.13c.06-.03.07-.02.12,0,.06,0,.11,0,.15-.01v-.05c-.02-.05-.04-.13-.23-.12-.11,0-.08-.13-.13-.2-.01-.03-.02-.05-.03-.08l-.05-.05c.05-.04.16-.02.16-.12,0,0-.02-.2-.14-.22h-.06s-.02.08-.07.09t-.19.01c-.04-.07-.05-.16-.1-.23-.06-.08-.14-.15-.18-.24-.11-.03-.21.04-.31.02-.04,0-.07,0-.1.01h-.07s-.05.02-.07.08c.07.07.2.04.24.16t.18.2c-.2.04-.41.07-.62.1.03.09.07.18.1.27.05.1.2.08.23.2.01.04.02.06.03.08q.17.01.32.17-.04.1-.28.15c-.08.02-.16.23-.13.3v.05c-.07.07-.1.1-.06.19l-.06.03s0,.05-.01.08c-.21.06-.17.14-.05.42-.07,0-.14.02-.21.03q.07.46-.03.43c-.13-.05-.15-.12-.16-.18h-.07s-.09.06-.12.11c.02.05.04.13-.06.22,0,.06.02.1.03.15.05,0,.09-.01.14-.02q.07.16.12.14c.11-.04.13.04.14.06,0,.02.01.03.02.05,0,.07-.03.14-.06.2l.04.07Z"/><path class="cls-1" d="M20.75,43.47h.01s-.04-.11-.06-.17c0-.02,0-.02,0-.03-.01,0-.03,0-.04,0,.03.06.06.13.1.19Z"/><path class="cls-1" d="M39.28,3.04s-.07.03-.1.05c-.02.01-.06.03-.08.06h.02s0,0,0,0t.06,0l-.05.03c-.09.05-.19.1-.17.12t.14-.05s.09-.04.12-.05c.03-.02.06-.04.09-.06h-.03s0,0,.1-.06h0s.05-.02.09-.01h0s0,.03,0,.03h0s.1-.02.21-.08h-.03s-.08.04-.13.05t.09-.06s-.07.03-.1.03h0s.01-.02.01-.02h0s-.05.01-.08.01c.02-.04.07-.04.11-.07h0s-.01,0-.01,0h0s0,0,0,0h-.04s-.1.06-.15.09c-.02,0-.02,0-.05.01Z"/><path class="cls-1" d="M38.82,3.08s.03,0,.16-.05l.09-.03s0,0-.23.11h.02s.08-.03.13-.04h-.02s-.03.03-.03.03h.03s-.03.02-.03.02h.03s-.02.02-.02.02h.03s-.08.03-.11.06h0s0,0,0,0l.05-.02.04-.03s.04-.03.05-.04h0s0,0,0,0h0s0,0,0,0h0s0,0,0,0v-.02s-.03,0-.03,0c.03-.02.06-.03.1-.05.02-.01.05-.02.07-.03h0s.08-.03.11-.05h-.01s-.01,0-.01,0h-.02s-.05.01-.05.01c.07-.04.15-.05.22-.1h0s-.01,0-.01,0h0s0-.01,0-.01c-.02,0-.05.02-.07.03q-.22.1-.23.1h0s-.02,0-.02,0c-.03.01-.05.02-.08.03-.02,0-.05.02-.07.03l-.06.03Z"/><path class="cls-1" d="M38.73,3.06h-.04s.06,0,.08-.03h-.04s.07-.03.07-.03h0s-.05,0-.05,0h-.01s-.08.03-.11.04h0s0,0-.06.04t-.04.02c-.09.04-.12.05-.13.06h0s.34-.12.34-.12Z"/><path class="cls-1" d="M40.93,3.68v.07s.02,0,.02,0c.03,0,.05,0,.08-.01q.03-.11.06-.12c.06-.02.06.07.11.07h.06c.02-.07.02-.09-.03-.12,0-.03-.02-.12.1-.14.05,0,.02-.07.03-.11h0c.05-.02.11-.02.16-.03-.01.04,0,.09-.03.13.01.04.05.03.09.03,0,.05,0,.1,0,.15.05,0,.06-.01.09.01.03.04.01.09.02.13.01.06.09.04.11.09v.03s.03,0,.03,0q.12-.21.19-.22c.07,0,.08,0,.1-.04.02-.04.05-.14-.2-.07l-.11-.04-.02-.03s.01-.03.04-.04h.01s.06.04.1.05c.04.01.06,0,.12-.02h.03s.01,0,.07,0v-.06c-.02-.09-.3-.04-.3-.04h-.03q-.06.02-.07,0h.01s0-.07,0-.07l.02-.02.04.03s.06,0,.09-.02q0-.07.02-.09h.04s0,.04,0,.04v.02s.02,0,.04,0c.03.02.02.09.07.07h.03s.06,0,.08-.05v-.06s.03-.01.06,0l.02.07s.04.05.11-.07c.02-.04,0-.07,0-.11-.08,0-.05.1-.09.13-.03-.05,0-.1-.02-.14-.05-.02-.04-.06-.04-.06.01-.03.05,0,.07-.01,0,0,.11-.09-.08-.11-.04,0-.08.01-.13.01-.01-.02-.05-.04-.07-.04v.02s.05.03.05.03v.04s-.06,0-.06,0c-.04-.01-.06-.05-.1-.07h-.04s0,.05,0,.05v.03s0,.02,0,.02v.03s-.02.06-.02.06c0,0-.04.02-.07-.03-.01-.03.01-.05.02-.08v-.02c0-.05-.02-.06-.03-.06h-.01s-.12.04-.17.06c0,.03.04.05.02.09l-.08.02v.06s-.03.02-.08.04c-.03.01-.05-.03-.08-.02h-.02s-.03.07-.06.08c-.03.02-.06,0-.08.03-.03.06-.03.07-.07.08-.03,0-.04.05-.06.11-.05,0-.1.01-.16.03,0,.02,0,.02-.03.09q-.13.03-.18.08v.03s.04,0,.04,0c.05,0,.1-.01.15-.02Z"/><path class="cls-1" d="M38.56,3.24s-.08.04-.12.07h.07s.08-.05.12-.07c0,0-.01,0,.02-.03l.04-.04h0s-.07,0-.1.01l-.06.03-.06.03h.06c-.08.03-.14.06-.17.08h.02s-.02.01-.02.01c.03,0,.08-.03.2-.09Z"/><path class="cls-1" d="M49.43,10.55s.05.03.08.06l.03.06s.08.02.11,0h.02s.11.08.11.08t.12.05l.05-.04s-.02-.06-.05-.08c-.04-.04-.1-.06-.15-.09l-.05-.06h0s-.07-.01-.07-.01c-.05-.02-.09-.06-.15-.07l-.13-.02v.02s.05.06.07.09v.02Z"/><path class="cls-1" d="M20.18,43.34h0s0,.02,0,.02c0,0,0-.01,0-.02,0,0,0,0,0,0Z"/><path class="cls-1" d="M41.55,3.08h0s0-.01,0-.01h0Z"/><path class="cls-1" d="M51.33,13.38q.04.08.05.08s.13.08.2.07c.03-.04.13-.1.22-.05.07.04.11.01.18-.06.04-.04,0-.11,0-.13l-.03-.03s-.07-.01-.1-.04c-.04-.04-.03-.11-.07-.15l-.02-.02q-.11-.11-.28-.1c-.03-.07-.06-.15-.09-.22q.13-.01.23-.03c-.07-.17-.14-.34-.21-.5-.03,0-.06,0-.09,0q-.06.06-.08.06c-.05,0-.1-.04-.16-.03-.05.01-.09-.03-.14-.02h-.03s0,0,0,0h.03c-.03-.13-.11-.23-.16-.35q-.16,0-.19.03s-.01.07-.03.1l-.05.04s-.06-.01-.08-.03c-.03-.02-.03-.05-.06-.06,0,0-.13-.03-.19-.03h-.03s-.04.06-.04.06c-.02.02-.05,0-.08.01-.03.03-.04.05-.05.06-.02.06.08.11.03.17-.06.08-.02.16,0,.18.03.05.1.11.23.09.02.05.04.09.05.14.03.1.08.19.11.28q.04.14.11.2s.07,0,.09.04c.03.05-.01.11,0,.16.01.03.02.07.04.1.2-.03.4-.06.6-.09.03.02.07.01.09.05Z"/><path class="cls-1" d="M40.91,3.07l-.02.05v.03s.02.03.1,0c.03-.02.04.04.07.04,0,0,.06,0,.11-.02l.04-.04s.02,0,.06,0c.04,0,.07,0,.11-.01.04,0,.06-.04.09-.05v-.05s-.08.01-.13.02c.01-.03.02-.04.06-.05.03-.01.05,0,.08,0l.04-.02h.02c.11-.06.03-.1.03-.1-.04-.01-.18.02-.18.03-.06.03-.07.05-.08.1h-.02s0-.02.03-.11h-.05s-.02.02-.02.02h0s0,0,0,0v-.02s-.01,0-.01,0l-.02.02h0s0,.06,0,.06q-.05.03-.07-.05s-.05,0-.11.1h-.04s-.01,0-.01,0c0,0-.01-.02-.06,0t-.07.05h.01s.04.01.05.03Z"/><path class="cls-2" d="M75.95,51.18c1.68-1.59,3.19-3.32,4.41-5.29,1.15-1.87,1.96-3.85,2.04-6.02.02-2.46-.81-4.36-1.28-5.23-1.17-2.12-2.94-3.65-4.87-5.02-.34-.24-.48-.5-.52-.9-.15-1.42-.19-2.85-.57-4.24-.14-.52-.23-1.06-.35-1.62.12.02.18.01.23.04,3.48,1.82,6.72,3.95,9.16,7.08,1.53,1.97,2.69,4.11,2.7,6.65h0c.03.61-.03,1.23-.14,1.8,0,.03,0,.07-.01.11,0,.02-.01.04-.02.07-.13.67-.3,1.26-.45,1.69,0,0,0,0,0,0-.03.07-.05.14-.08.21-.11.31-.19.49-.19.5-.1.26-.2.52-.32.78-1.58,3.4-3.96,6.13-7,8.29-1.14.81-2.14,1.26-3.16,1.44.22-.18.33-.25.42-.34Z"/><path class="cls-1" d="M102.62,9.02h12.7v4.31h-4.19v18.67h-4.44V13.33h-4.08v-4.31ZM125.84,14.56c1.6,0,3.11.4,4.52,1.2,1.42.8,2.52,1.89,3.31,3.27.79,1.38,1.19,2.86,1.19,4.45s-.4,3.1-1.2,4.5c-.79,1.4-1.88,2.49-3.25,3.28-1.38.78-2.89,1.17-4.55,1.17-2.44,0-4.52-.86-6.25-2.59-1.72-1.74-2.58-3.85-2.58-6.33,0-2.66.97-4.87,2.92-6.64,1.71-1.54,3.67-2.31,5.89-2.31ZM125.9,18.58c-1.32,0-2.43.46-3.31,1.39-.88.92-1.31,2.09-1.31,3.53s.43,2.68,1.3,3.59c.88.92,1.98,1.38,3.31,1.38s2.44-.46,3.33-1.39c.89-.93,1.33-2.12,1.33-3.58s-.44-2.64-1.31-3.55c-.87-.92-1.97-1.38-3.33-1.38ZM138.34,15h4.31v8.19c0,1.59.11,2.7.33,3.33.22.61.57,1.09,1.05,1.44.49.34,1.09.52,1.8.52s1.31-.17,1.8-.5c.5-.34.87-.84,1.11-1.5.18-.49.26-1.54.26-3.14v-8.33h4.28v7.2c0,2.97-.23,5-.7,6.09-.57,1.33-1.42,2.36-2.53,3.08-1.11.71-2.53,1.06-4.25,1.06-1.86,0-3.38-.42-4.53-1.25-1.15-.83-1.95-1.99-2.42-3.48-.33-1.03-.5-2.91-.5-5.62v-7.08ZM156.58,15h3.66v2.14c.4-.84.92-1.48,1.58-1.92.66-.44,1.38-.66,2.16-.66.55,0,1.13.15,1.73.44l-1.33,3.67c-.5-.25-.91-.38-1.23-.38-.66,0-1.21.41-1.67,1.22-.45.81-.67,2.41-.67,4.78l.02.83v6.88h-4.24V15ZM167.79,15h4.28v1.95c.73-.8,1.54-1.4,2.42-1.8.9-.4,1.87-.59,2.92-.59s2.02.26,2.88.78c.85.52,1.54,1.28,2.06,2.28.68-1,1.51-1.76,2.48-2.28.99-.52,2.07-.78,3.23-.78s2.27.28,3.19.84c.92.56,1.57,1.3,1.97,2.2.41.91.61,2.38.61,4.42v9.97h-4.3v-8.62c0-1.93-.24-3.23-.72-3.91-.48-.69-1.2-1.03-2.16-1.03-.73,0-1.38.21-1.97.62-.57.42-1,.99-1.28,1.73-.28.73-.42,1.91-.42,3.53v7.67h-4.3v-8.23c0-1.52-.11-2.62-.34-3.3-.22-.69-.55-1.2-1-1.53s-.99-.5-1.62-.5c-.71,0-1.35.21-1.94.64-.57.42-1.01,1.01-1.3,1.77-.28.76-.42,1.96-.42,3.59v7.56h-4.28V15Z"/><path class="cls-1" d="M103.54,53c-.1,0-.15-.04-.15-.13v-9.83c0-.09.05-.14.15-.14h4.81c.08,0,.12.01.14.03.02,0,.03.05.03.12v.76c0,.08,0,.13-.03.15-.02,0-.06.01-.14.01h-3.48c-.05,0-.08,0-.09.03,0,.01-.01.04-.01.09v3.15s0,.08.01.1c.02,0,.05.01.09.01h2.81c.08,0,.12,0,.14.03.02.02.03.08.03.17v.69c0,.08-.01.14-.03.17-.01.02-.06.03-.14.03h-2.81c-.05,0-.08,0-.09.01,0,0-.01.04-.01.09v3.22s0,.08.01.1c.01.02.04.03.09.03h3.45c.1,0,.15.01.17.03.02.02.03.08.03.17v.69c0,.09-.01.15-.04.17-.02.02-.07.03-.15.03h-4.78ZM110.38,53c-.05,0-.09-.02-.11-.06-.01-.05-.01-.1,0-.15.01-.06.01-.1.01-.14.01-.07.05-.21.12-.42.08-.21.18-.47.31-.76.14-.3.3-.62.48-.98.18-.35.38-.7.6-1.05.03-.05.04-.1.03-.13,0-.05-.02-.1-.06-.15-.23-.32-.43-.66-.61-1.02-.17-.37-.32-.72-.45-1.03-.12-.32-.21-.58-.28-.78-.06-.21-.09-.32-.09-.32,0-.06.01-.09.06-.09h1.21c.05,0,.08.01.11.03.03,0,.06.06.07.13.02.07.07.23.14.47.08.23.17.49.28.78.11.29.23.56.36.82.14.26.28.46.42.59h.27c.15-.13.29-.32.42-.57.14-.26.26-.53.38-.81.11-.29.2-.55.27-.78.07-.24.11-.4.12-.47.02-.08.04-.13.08-.15.03-.03.09-.05.18-.05h.93s.06.01.09.03c.04,0,.06.05.04.12,0,.07-.04.21-.1.42-.06.21-.15.46-.26.75-.11.29-.25.6-.42.94-.17.33-.37.65-.6.97-.07.07-.07.16.01.27.25.35.46.71.64,1.08.18.36.33.7.45,1.02.12.31.21.57.27.78.07.21.11.34.12.39.02.09.02.17,0,.22-.01.05-.04.08-.11.08h-.96c-.08,0-.14,0-.18-.03-.03-.03-.06-.09-.07-.17-.03-.1-.08-.28-.17-.53s-.18-.52-.3-.82c-.11-.3-.24-.59-.39-.86-.14-.27-.29-.48-.45-.63h-.29c-.18.24-.35.52-.51.85-.15.32-.29.63-.41.94-.12.3-.21.56-.28.76-.06.2-.09.3-.09.3-.02.08-.04.13-.07.15-.03,0-.07.01-.14.01h-1.09ZM118.11,54.54c-.03-.53-.06-1.17-.07-1.93-.01-.76-.01-1.65-.01-2.65,0-.36.01-.75.01-1.16,0-.42.03-.83.04-1.23.03-.4.07-.75.11-1.05,0-.08.03-.15.07-.21.05-.06.15-.11.32-.15.28-.1.62-.19,1.02-.26.41-.07.86-.1,1.35-.1.97,0,1.71.28,2.21.85.5.56.75,1.44.75,2.66,0,.48-.05.93-.15,1.35-.09.42-.23.79-.42,1.11s-.43.58-.72.79c-.29.2-.63.33-1.02.39-.18.04-.4.06-.65.07-.24.02-.47.03-.71.01-.23,0-.42-.03-.58-.06-.07-.02-.12-.03-.17-.03s-.06.03-.07.09v.87c.01.19.01.35.01.49.01.09.01.15,0,.19,0,.05-.06.08-.17.08h-.96c-.06,0-.1-.01-.14-.05-.03-.02-.05-.05-.06-.09ZM119.4,51.5c0,.08.02.13.06.17.04.03.08.05.14.06.19.06.4.11.63.15.24.03.45.04.63.04s.36-.03.56-.1c.2-.07.38-.19.56-.38.17-.18.31-.44.42-.78.11-.35.17-.8.17-1.35,0-.94-.15-1.59-.45-1.94-.3-.36-.69-.54-1.18-.54-.24,0-.47.02-.69.06-.22.03-.41.08-.58.15-.05.02-.09.05-.12.08-.03.03-.05.07-.05.12-.02.24-.03.51-.04.82-.01.31-.02.64-.03.98,0,.33,0,.65-.01.97v.87c0,.26,0,.47.01.62ZM126.43,52.87v-10.35c0-.09.05-.13.15-.13h1.04c.1,0,.15.04.15.13v10.35c0,.09-.05.13-.15.13h-1.04c-.1,0-.15-.04-.15-.13ZM133.45,53.09c-.83,0-1.48-.15-1.93-.47-.46-.31-.78-.74-.96-1.29-.17-.56-.25-1.19-.25-1.89s.1-1.32.28-1.86c.2-.55.53-.98.99-1.29.46-.31,1.09-.46,1.88-.46s1.41.15,1.88.46c.46.31.79.74.98,1.29.2.54.3,1.16.3,1.86s-.09,1.33-.27,1.88c-.17.55-.49.99-.95,1.31-.45.31-1.1.47-1.93.47ZM133.43,52.06c.67,0,1.13-.22,1.4-.67.27-.46.4-1.1.4-1.92s-.15-1.43-.43-1.88c-.29-.44-.75-.66-1.37-.66s-1.07.22-1.37.66c-.29.44-.43,1.07-.43,1.88s.14,1.47.4,1.92c.27.45.74.67,1.4.67ZM141.37,45.85c.65,0,1.2.09,1.65.27.06.03.1.06.12.09.03.03.04.07.01.12l-.18.69c-.02.06-.04.1-.07.1-.02.01-.06,0-.12-.01-.18-.06-.38-.1-.58-.12-.21-.03-.4-.05-.56-.05s-.31.02-.46.05c-.15.02-.29.04-.4.08-.11.03-.19.06-.24.09-.05.03-.1.06-.15.1-.05.04-.07.13-.07.27v5.26c0,.09-.01.15-.04.18-.03.02-.07.03-.14.03h-1.02s-.06,0-.09-.03c-.03-.02-.04-.07-.04-.15v-6.09c0-.15.02-.25.06-.3.04-.05.11-.1.2-.14.29-.14.63-.25,1.04-.33.41-.08.78-.12,1.11-.12ZM144.79,49.44c0-.47.04-.92.14-1.35.1-.43.26-.82.48-1.16.23-.35.54-.62.93-.81.39-.2.89-.3,1.5-.3s1.13.09,1.5.27c.38.18.67.42.86.72.2.3.33.63.39.99.06.36.09.72.09,1.08,0,.39-.04.64-.12.75-.08.1-.2.15-.36.15h-3.92s-.07,0-.1.03-.04.08-.04.17c0,.41.08.77.23,1.1.15.32.37.57.66.76.3.18.67.27,1.11.27.34,0,.68-.05,1.02-.14.34-.1.61-.2.81-.31.1-.05.18-.08.23-.09.06-.01.11.04.16.15l.24.45c.04.07.05.12.03.17-.02.03-.07.07-.15.12-.33.21-.73.37-1.2.48-.46.1-.93.15-1.41.15-.63,0-1.15-.09-1.55-.27-.39-.19-.7-.45-.93-.78-.22-.34-.38-.73-.46-1.17-.08-.44-.12-.91-.12-1.42ZM149.32,48.68c0-.34-.04-.65-.13-.92-.08-.27-.23-.49-.45-.65-.21-.17-.52-.25-.93-.25-.3,0-.55.06-.76.18-.21.11-.38.26-.51.44-.12.18-.21.38-.27.6-.06.21-.1.41-.12.61,0,.12,0,.2,0,.24.02.03.07.04.15.04h2.81c.09,0,.15-.01.18-.04.04-.03.06-.12.04-.26ZM160.3,53c-.14,0-.24-.06-.28-.18-.22-.42-.45-.94-.68-1.58-.23-.63-.46-1.31-.68-2.04-.22-.74-.43-1.49-.63-2.24-.19-.75-.35-1.46-.49-2.13-.13-.67-.23-1.25-.3-1.74,0-.06,0-.1,0-.13.02-.04.06-.06.12-.06h1.05c.07,0,.12.01.14.03.02.02.03.06.04.12.06.4.15.92.29,1.54.13.63.3,1.39.52,2.27.16.63.31,1.2.45,1.72.15.52.29.99.42,1.4.13.4.25.74.36,1.02.02.04.04.08.04.1.02.02.04.03.06.03h.08s.05,0,.06-.03c.02-.03.04-.07.04-.1.08-.19.17-.43.27-.72.1-.29.21-.6.32-.94.12-.34.23-.68.33-1.02.11-.35.21-.67.29-.97.09-.3.16-.56.21-.78,0-.32,0-.67,0-1.05,0-.38-.01-.74-.03-1.1-.01-.35-.02-.65-.03-.9v-.44c0-.06,0-.1.01-.13,0-.04.04-.06.1-.06h1.08c.06,0,.1.01.12.03.02.02.03.07.03.14,0,.45.01.9.04,1.36.04.45.09.87.14,1.26.06.39.12.74.18,1.03.13.72.31,1.44.53,2.15.22.71.46,1.41.72,2.1.03.07.05.12.06.15.02.02.04.03.06.03h.09s.04-.03.07-.1c.09-.2.2-.49.33-.88.13-.39.27-.86.43-1.4.16-.54.32-1.13.48-1.77.12-.44.22-.83.3-1.19.09-.35.17-.67.23-.97.07-.31.13-.6.18-.87.06-.28.12-.57.17-.86,0-.08.02-.13.04-.15.03-.03.07-.05.12-.05h1.07c.12,0,.16.08.12.23-.08.43-.19.97-.34,1.62-.15.65-.32,1.36-.51,2.13-.19.76-.4,1.51-.61,2.26-.21.75-.43,1.45-.65,2.1-.22.64-.43,1.16-.65,1.56,0,.04-.04.08-.09.13-.04.04-.09.06-.15.06h-1.12s-.09-.03-.13-.08c-.04-.05-.07-.08-.09-.1-.15-.32-.31-.69-.48-1.11-.17-.42-.34-.88-.5-1.36-.15-.49-.3-.99-.45-1.5-.03-.1-.06-.16-.09-.18-.03-.03-.07.02-.12.17-.15.52-.29.98-.42,1.38-.12.39-.24.75-.35,1.07-.1.31-.2.59-.3.84-.1.25-.21.48-.32.69-.02.07-.06.12-.12.15-.05.03-.09.04-.13.04h-1.05ZM173.24,53.09c-.83,0-1.48-.15-1.93-.47-.46-.31-.78-.74-.96-1.29-.17-.56-.25-1.19-.25-1.89s.1-1.32.28-1.86c.2-.55.53-.98.99-1.29.46-.31,1.09-.46,1.88-.46s1.41.15,1.88.46c.46.31.79.74.98,1.29.2.54.3,1.16.3,1.86s-.09,1.33-.27,1.88c-.17.55-.49.99-.95,1.31-.45.31-1.1.47-1.93.47ZM173.22,52.06c.67,0,1.13-.22,1.4-.67.27-.46.4-1.1.4-1.92s-.15-1.43-.43-1.88c-.29-.44-.75-.66-1.37-.66s-1.07.22-1.37.66c-.29.44-.43,1.07-.43,1.88s.14,1.47.4,1.92c.27.45.74.67,1.4.67ZM181.16,45.85c.65,0,1.2.09,1.65.27.06.03.1.06.12.09.03.03.04.07.01.12l-.18.69c-.02.06-.04.1-.07.1-.02.01-.06,0-.12-.01-.18-.06-.38-.1-.58-.12-.21-.03-.4-.05-.56-.05s-.31.02-.46.05c-.15.02-.29.04-.4.08-.11.03-.19.06-.24.09-.05.03-.1.06-.15.1-.05.04-.07.13-.07.27v5.26c0,.09-.01.15-.04.18-.03.02-.07.03-.14.03h-1.02s-.06,0-.09-.03-.04-.07-.04-.15v-6.09c0-.15.02-.25.06-.3.04-.05.11-.1.2-.14.29-.14.63-.25,1.04-.33.41-.08.78-.12,1.11-.12ZM184.91,52.87v-10.35c0-.09.05-.13.15-.13h1.03c.1,0,.15.04.15.13v10.35c0,.09-.05.13-.15.13h-1.03c-.1,0-.15-.04-.15-.13ZM188.85,49.55c0-.76.1-1.38.29-1.84.18-.48.41-.85.7-1.11.29-.27.61-.46.96-.56.35-.1.69-.15,1.04-.15.24,0,.47.02.71.06.23.03.41.06.55.1.1.02.17.03.21.03.05,0,.07-.06.07-.15,0-.17,0-.38-.01-.62,0-.24-.01-.49-.03-.74-.01-.26-.03-.51-.04-.75-.01-.25-.02-.47-.03-.66-.01-.19-.02-.33-.03-.4-.02-.11-.01-.17.01-.19.03-.03.08-.05.14-.05h1.01s.07.01.1.03c.04,0,.06.04.06.09.04.46.07.97.09,1.53.03.55.05,1.12.06,1.72.02.59.03,1.19.03,1.8.01.6,0,1.18-.01,1.75,0,.56-.03,1.08-.06,1.58-.02.49-.05.92-.1,1.31-.02.08-.06.15-.1.21-.04.06-.15.12-.32.18-.23.1-.55.19-.96.27-.4.08-.83.12-1.29.12-.41,0-.79-.05-1.14-.15-.35-.1-.65-.26-.9-.48-.33-.28-.58-.67-.75-1.16-.17-.49-.25-1.08-.24-1.78ZM190.2,49.56c0,.67.08,1.18.23,1.53.16.34.37.57.63.69.17.13.38.22.63.26.25.03.5.03.75,0,.26-.04.49-.1.68-.18.04-.03.07-.06.1-.09s.05-.07.05-.12c.02-.24.03-.51.04-.81.02-.31.03-.62.03-.94,0-.33.02-.65.03-.94,0-.31.01-.59.01-.84v-.62c0-.09-.02-.15-.06-.18-.03-.04-.07-.06-.12-.07-.2-.06-.42-.11-.66-.15-.24-.04-.45-.06-.63-.06-.17,0-.35.03-.56.09-.2.06-.39.17-.57.35-.17.17-.31.42-.42.76-.1.33-.15.78-.17,1.33Z"/></svg>